<svg width="128" height="45" viewBox="0 0 128 45" fill="none" xmlns="http://www.w3.org/2000/svg">
<path d="M19.136 6.8V25H13.988V17.902H6.968V25H1.82V6.8H6.968V13.638H13.988V6.8H19.136ZM37.9773 17.98C37.9773 18.0147 37.9513 18.422 37.8993 19.202H27.6553C27.8633 19.93 28.2619 20.4933 28.8513 20.892C29.4579 21.2733 30.2119 21.464 31.1133 21.464C31.7893 21.464 32.3699 21.3687 32.8553 21.178C33.3579 20.9873 33.8606 20.6753 34.3633 20.242L36.9633 22.946C35.5939 24.4713 33.5919 25.234 30.9573 25.234C29.3106 25.234 27.8633 24.922 26.6153 24.298C25.3673 23.674 24.3966 22.8073 23.7033 21.698C23.0273 20.5887 22.6893 19.332 22.6893 17.928C22.6893 16.5413 23.0186 15.302 23.6773 14.21C24.3533 13.1007 25.2806 12.234 26.4593 11.61C27.6379 10.986 28.9639 10.674 30.4373 10.674C31.8413 10.674 33.1153 10.9687 34.2593 11.558C35.4033 12.13 36.3046 12.9707 36.9633 14.08C37.6393 15.172 37.9773 16.472 37.9773 17.98ZM30.4633 14.184C29.7006 14.184 29.0593 14.4007 28.5393 14.834C28.0366 15.2673 27.7159 15.8567 27.5773 16.602H33.3493C33.2106 15.8567 32.8813 15.2673 32.3613 14.834C31.8586 14.4007 31.2259 14.184 30.4633 14.184ZM41.2949 5.708H46.2349V25H41.2949V5.708ZM50.4853 5.708H55.4253V25H50.4853V5.708Z" fill="#111518"/>
<path d="M7.8 37.4V43H6.504V40.704H3.96V43H2.664V37.4H3.96V39.608H6.504V37.4H7.8ZM14.9009 41.96V43H10.5649V37.4H14.7969V38.44H11.8529V39.656H14.4529V40.664H11.8529V41.96H14.9009ZM17.3721 37.4H18.6681V41.944H21.4761V43H17.3721V37.4ZM23.6402 37.4H24.9362V41.944H27.7442V43H23.6402V37.4ZM29.9084 37.4H31.2044V43H29.9084V37.4ZM35.8134 43.096C35.3707 43.096 34.9414 43.0373 34.5254 42.92C34.1147 42.7973 33.784 42.64 33.5334 42.448L33.9734 41.472C34.2134 41.648 34.4987 41.7893 34.8294 41.896C35.16 42.0027 35.4907 42.056 35.8214 42.056C36.1894 42.056 36.4614 42.0027 36.6374 41.896C36.8134 41.784 36.9014 41.6373 36.9014 41.456C36.9014 41.3227 36.848 41.2133 36.7414 41.128C36.64 41.0373 36.5067 40.9653 36.3414 40.912C36.1814 40.8587 35.9627 40.8 35.6854 40.736C35.2587 40.6347 34.9094 40.5333 34.6374 40.432C34.3654 40.3307 34.1307 40.168 33.9334 39.944C33.7414 39.72 33.6454 39.4213 33.6454 39.048C33.6454 38.7227 33.7334 38.4293 33.9094 38.168C34.0854 37.9013 34.3494 37.6907 34.7014 37.536C35.0587 37.3813 35.4934 37.304 36.0054 37.304C36.3627 37.304 36.712 37.3467 37.0534 37.432C37.3947 37.5173 37.6934 37.64 37.9494 37.8L37.5494 38.784C37.032 38.4907 36.5147 38.344 35.9974 38.344C35.6347 38.344 35.3654 38.4027 35.1894 38.52C35.0187 38.6373 34.9334 38.792 34.9334 38.984C34.9334 39.176 35.032 39.32 35.2294 39.416C35.432 39.5067 35.7387 39.5973 36.1494 39.688C36.576 39.7893 36.9254 39.8907 37.1974 39.992C37.4694 40.0933 37.7014 40.2533 37.8934 40.472C38.0907 40.6907 38.1894 40.9867 38.1894 41.36C38.1894 41.68 38.0987 41.9733 37.9174 42.24C37.7414 42.5013 37.4747 42.7093 37.1174 42.864C36.76 43.0187 36.3254 43.096 35.8134 43.096ZM45.6509 37.4V43H44.3549V40.704H41.8109V43H40.5149V37.4H41.8109V39.608H44.3549V37.4H45.6509Z" fill="#FF6B09"/>
<path d="M56.4575 41.96V43H52.1215V37.4H56.3535V38.44H53.4095V39.656H56.0095V40.664H53.4095V41.96H56.4575ZM64.0647 37.4V43H63.0007L60.2087 39.6V43H58.9287V37.4H60.0007L62.7847 40.8V37.4H64.0647ZM70.6136 40.112H71.7976V42.384C71.4936 42.6133 71.1416 42.7893 70.7416 42.912C70.3416 43.0347 69.939 43.096 69.5336 43.096C68.9523 43.096 68.4296 42.9733 67.9656 42.728C67.5016 42.4773 67.1363 42.1333 66.8696 41.696C66.6083 41.2533 66.4776 40.7547 66.4776 40.2C66.4776 39.6453 66.6083 39.1493 66.8696 38.712C67.1363 38.2693 67.5043 37.9253 67.9736 37.68C68.443 37.4293 68.971 37.304 69.5576 37.304C70.0483 37.304 70.4936 37.3867 70.8936 37.552C71.2936 37.7173 71.6296 37.9573 71.9016 38.272L71.0696 39.04C70.6696 38.6187 70.187 38.408 69.6216 38.408C69.2643 38.408 68.947 38.4827 68.6696 38.632C68.3923 38.7813 68.1763 38.992 68.0216 39.264C67.867 39.536 67.7896 39.848 67.7896 40.2C67.7896 40.5467 67.867 40.856 68.0216 41.128C68.1763 41.4 68.3896 41.6133 68.6616 41.768C68.939 41.9173 69.2536 41.992 69.6056 41.992C69.979 41.992 70.315 41.912 70.6136 41.752V40.112ZM74.4415 37.4H75.7375V41.944H78.5455V43H74.4415V37.4ZM80.7096 37.4H82.0056V43H80.7096V37.4ZM86.6146 43.096C86.172 43.096 85.7426 43.0373 85.3266 42.92C84.916 42.7973 84.5853 42.64 84.3346 42.448L84.7746 41.472C85.0146 41.648 85.3 41.7893 85.6306 41.896C85.9613 42.0027 86.292 42.056 86.6226 42.056C86.9906 42.056 87.2626 42.0027 87.4386 41.896C87.6146 41.784 87.7026 41.6373 87.7026 41.456C87.7026 41.3227 87.6493 41.2133 87.5426 41.128C87.4413 41.0373 87.308 40.9653 87.1426 40.912C86.9826 40.8587 86.764 40.8 86.4866 40.736C86.06 40.6347 85.7106 40.5333 85.4386 40.432C85.1666 40.3307 84.932 40.168 84.7346 39.944C84.5426 39.72 84.4466 39.4213 84.4466 39.048C84.4466 38.7227 84.5346 38.4293 84.7106 38.168C84.8866 37.9013 85.1506 37.6907 85.5026 37.536C85.86 37.3813 86.2946 37.304 86.8066 37.304C87.164 37.304 87.5133 37.3467 87.8546 37.432C88.196 37.5173 88.4946 37.64 88.7506 37.8L88.3506 38.784C87.8333 38.4907 87.316 38.344 86.7986 38.344C86.436 38.344 86.1666 38.4027 85.9906 38.52C85.82 38.6373 85.7346 38.792 85.7346 38.984C85.7346 39.176 85.8333 39.32 86.0306 39.416C86.2333 39.5067 86.54 39.5973 86.9506 39.688C87.3773 39.7893 87.7266 39.8907 87.9986 39.992C88.2706 40.0933 88.5026 40.2533 88.6946 40.472C88.892 40.6907 88.9906 40.9867 88.9906 41.36C88.9906 41.68 88.9 41.9733 88.7186 42.24C88.5426 42.5013 88.276 42.7093 87.9186 42.864C87.5613 43.0187 87.1266 43.096 86.6146 43.096ZM96.4522 37.4V43H95.1562V40.704H92.6122V43H91.3162V37.4H92.6122V39.608H95.1562V37.4H96.4522Z" fill="#111518"/>
<path d="M104.432 21.022V25H89.82V6.8H104.094V10.778H94.916V13.846H103.002V17.694H94.916V21.022H104.432ZM125.645 6.8V25H121.407L113.373 15.302V25H108.329V6.8H112.567L120.601 16.498V6.8H125.645Z" fill="#111518"/>
<path d="M82.5397 15.5556C82.2739 14.9601 81.9072 14.3738 81.371 13.6965C80.0189 11.9965 79.6064 8.20557 79.6018 8.1692C79.5835 7.98739 79.4551 7.83739 79.2855 7.78284C79.1114 7.7283 78.9235 7.7783 78.7997 7.91466C77.1864 9.7192 77.8647 12.5056 78.2314 13.6192C78.3322 13.9238 78.4422 14.2828 78.5201 14.6465C79.1159 17.5874 77.9655 18.9192 77.6951 19.1874C77.4338 19.2601 77.2551 19.2238 77.0901 19.0465C76.5217 18.4238 76.3338 16.3828 76.5997 13.7238C76.6547 13.1828 76.6409 12.6965 76.563 12.2419C76.0024 8.97361 73.9467 6.87716 73.4234 6.14193C71.9842 4.01466 71.8376 0.47375 71.833 0.441932C71.8284 0.27375 71.7322 0.12375 71.5809 0.0510227C71.4342 -0.0217046 71.2555 -0.0126137 71.118 0.0828409C68.7163 1.71466 68.9226 5.64648 69.2572 7.84193C69.3351 8.35102 69.4863 8.86921 69.7476 9.52375C70.678 11.8647 69.5642 14.8874 69.5551 14.9147C69.5459 14.9419 69.5367 14.9647 69.5322 14.9919C69.3901 15.7374 69.1517 16.1828 68.8859 16.1828C68.8584 16.1828 68.8309 16.1783 68.7988 16.1692C68.4734 16.101 68.3038 15.7556 68.2992 15.4556C68.2809 11.5783 64.3897 10.2738 64.3484 10.2601C64.1742 10.2056 63.9817 10.2556 63.8626 10.3965C63.7388 10.5374 63.7159 10.7328 63.7984 10.8965C63.8442 10.9919 63.9909 11.4101 63.8901 12.8874C63.803 14.2147 63.5601 15.5283 63.1705 16.7874C62.2447 19.8056 62.3913 22.6647 62.4005 22.801C63.1124 30.5423 74.2456 31.8987 80.853 27.5374C81.5772 27.0601 82.1684 26.5147 82.6038 25.9147C85.0422 22.551 83.6076 17.9828 82.5397 15.5556ZM65.6043 22.951C65.618 23.201 65.4255 23.4147 65.1735 23.4283H65.146C64.903 23.4283 64.7014 23.2419 64.6876 23.001C64.6464 22.3374 64.6555 21.6419 64.706 20.8874C64.7243 20.6374 64.9443 20.451 65.1964 20.4646C65.4485 20.4828 65.641 20.701 65.6226 20.951C65.5722 21.6692 65.563 22.3238 65.6043 22.951ZM65.8288 18.9238C65.8013 19.1556 65.6042 19.3238 65.3751 19.3238C65.3567 19.3238 65.3384 19.3238 65.3155 19.3192C65.068 19.2874 64.8892 19.0647 64.9167 18.8147L65.1367 17.0601C65.1688 16.8147 65.3934 16.6374 65.6501 16.6647C65.9022 16.6965 66.0809 16.9237 66.0488 17.1737L65.8288 18.9238Z" fill="#FF6B09"/>
<path d="M79.4391 6.21861C79.1891 6.1802 79.0177 5.94851 79.0562 5.70061C79.0848 5.51592 79.2504 4.57047 79.6998 4.09506C79.8728 3.91174 80.1624 3.9022 80.3477 4.07442C80.5323 4.24597 80.5417 4.53365 80.3685 4.71697C80.1783 4.91829 80.0163 5.49442 79.9621 5.83915C79.9234 6.08442 79.6928 6.25656 79.4391 6.21861Z" fill="#FF6B09"/>
<path d="M62.7298 8.48269C62.6421 8.14464 62.4241 7.58714 62.2149 7.40514C62.0244 7.23955 62.0054 6.95237 62.1723 6.76373C62.3388 6.57464 62.6282 6.55532 62.8191 6.72155C63.313 7.151 63.571 8.07587 63.6178 8.25673C63.6805 8.49978 63.5328 8.747 63.288 8.8096C63.0377 8.872 62.7922 8.72169 62.7298 8.48269Z" fill="#FF6B09"/>
</svg>
