<svg width="82" height="10" fill="none" xmlns="http://www.w3.org/2000/svg"><path d="M0 6.204V5.04h12v1.164H0Zm22.37 2.94a5.234 5.234 0 0 1-1.836-.312 4.468 4.468 0 0 1-1.452-.912 4.282 4.282 0 0 1-.96-1.38 4.41 4.41 0 0 1-.336-1.74c0-.632.112-1.212.336-1.74.232-.528.556-.988.972-1.38a4.283 4.283 0 0 1 1.464-.9 5.095 5.095 0 0 1 1.848-.324c.744 0 1.412.124 2.004.372a3.97 3.97 0 0 1 1.512 1.08L24.674 3.06a2.968 2.968 0 0 0-.996-.708c-.36-.16-.752-.24-1.176-.24-.408 0-.78.064-1.116.192a2.549 2.549 0 0 0-.876.552c-.24.24-.428.524-.564.852a2.98 2.98 0 0 0-.192 1.092c0 .392.064.752.192 1.08.136.328.324.616.564.864.248.24.536.424.864.552.336.128.704.192 1.104.192.384 0 .756-.06 1.116-.18.368-.128.724-.34 1.068-.636l1.104 1.404a5.053 5.053 0 0 1-1.596.792c-.6.184-1.2.276-1.8.276Zm1.62-1.32V4.668h1.776v3.408l-1.776-.252ZM28.4 9V2.544h1.788v1.824l-.252-.528c.192-.456.5-.8.924-1.032.424-.24.94-.36 1.548-.36v1.728a2.191 2.191 0 0 0-.216-.012 1.647 1.647 0 0 0-.204-.012c-.512 0-.928.148-1.248.444-.312.288-.468.74-.468 1.356V9H28.4Zm9.62 0V7.74l-.12-.276V5.208c0-.4-.124-.712-.372-.936-.24-.224-.612-.336-1.117-.336-.343 0-.684.056-1.02.168a2.603 2.603 0 0 0-.84.432l-.672-1.308c.352-.248.777-.44 1.273-.576.495-.136 1-.204 1.511-.204.985 0 1.748.232 2.293.696.543.464.816 1.188.816 2.172V9H38.02Zm-1.969.096c-.504 0-.936-.084-1.296-.252a2.01 2.01 0 0 1-.828-.708 1.79 1.79 0 0 1-.288-.996c0-.384.092-.72.276-1.008.193-.288.492-.512.9-.672.409-.168.94-.252 1.596-.252h1.716V6.3h-1.512c-.44 0-.744.072-.912.216a.696.696 0 0 0-.24.54c0 .24.093.432.276.576.193.136.453.204.78.204.313 0 .593-.072.84-.216.248-.152.428-.372.54-.66l.288.864a1.671 1.671 0 0 1-.743.948c-.36.216-.825.324-1.393.324Zm14.643-6.648c.512 0 .964.104 1.356.312.4.2.712.512.936.936.232.416.348.952.348 1.608V9h-1.872V5.592c0-.52-.108-.904-.324-1.152-.216-.248-.52-.372-.912-.372-.272 0-.516.064-.732.192-.216.12-.384.304-.504.552-.12.248-.18.564-.18.948V9h-1.872V5.592c0-.52-.108-.904-.324-1.152-.208-.248-.508-.372-.9-.372-.272 0-.516.064-.732.192-.216.12-.384.304-.504.552-.12.248-.18.564-.18.948V9h-1.872V2.544h1.788v1.764l-.336-.516c.224-.44.54-.772.948-.996a2.857 2.857 0 0 1 1.416-.348c.592 0 1.108.152 1.548.456.448.296.744.752.888 1.368l-.66-.18c.216-.504.56-.904 1.032-1.2.48-.296 1.028-.444 1.644-.444Zm13.546 0c.512 0 .964.104 1.356.312.4.2.712.512.936.936.232.416.348.952.348 1.608V9h-1.872V5.592c0-.52-.108-.904-.324-1.152-.216-.248-.52-.372-.912-.372-.272 0-.516.064-.732.192-.216.12-.384.304-.504.552-.12.248-.18.564-.18.948V9h-1.872V5.592c0-.52-.108-.904-.324-1.152-.208-.248-.508-.372-.9-.372-.272 0-.516.064-.732.192-.216.12-.384.304-.504.552-.12.248-.18.564-.18.948V9h-1.872V2.544h1.788v1.764l-.336-.516c.224-.44.54-.772.948-.996a2.857 2.857 0 0 1 1.416-.348c.592 0 1.108.152 1.548.456.448.296.744.752.888 1.368l-.66-.18c.216-.504.56-.904 1.032-1.2.48-.296 1.028-.444 1.644-.444ZM73.478 9V7.74l-.12-.276V5.208c0-.4-.124-.712-.372-.936-.24-.224-.612-.336-1.116-.336-.344 0-.684.056-1.02.168a2.603 2.603 0 0 0-.84.432l-.672-1.308c.352-.248.776-.44 1.272-.576.496-.136 1-.204 1.512-.204.984 0 1.748.232 2.292.696.544.464.816 1.188.816 2.172V9h-1.752Zm-1.968.096c-.504 0-.936-.084-1.296-.252a2.01 2.01 0 0 1-.828-.708 1.79 1.79 0 0 1-.288-.996c0-.384.092-.72.276-1.008.192-.288.492-.512.9-.672.408-.168.94-.252 1.596-.252h1.716V6.3h-1.512c-.44 0-.744.072-.912.216a.696.696 0 0 0-.24.54c0 .24.092.432.276.576.192.136.452.204.78.204.312 0 .592-.072.84-.216.248-.152.428-.372.54-.66l.288.864a1.671 1.671 0 0 1-.744.948c-.36.216-.824.324-1.392.324ZM77.884 9V2.544h1.788v1.824l-.252-.528c.192-.456.5-.8.924-1.032.424-.24.94-.36 1.548-.36v1.728a2.191 2.191 0 0 0-.216-.012 1.647 1.647 0 0 0-.204-.012c-.512 0-.928.148-1.248.444-.312.288-.468.74-.468 1.356V9h-1.872Z" fill="#FF6B09"/></svg>