<svg width="97" height="12" fill="none" xmlns="http://www.w3.org/2000/svg"><path d="M0 6.204V5.04h12v1.164H0ZM20.834 9 17.21.6h2.1l3.168 7.44h-1.236L24.458.6h1.932L22.754 9h-1.92Zm9.677.096c-.688 0-1.3-.144-1.836-.432a3.363 3.363 0 0 1-1.26-1.176 3.257 3.257 0 0 1-.456-1.716c0-.648.152-1.22.456-1.716a3.24 3.24 0 0 1 1.26-1.176c.536-.288 1.148-.432 1.836-.432.68 0 1.288.144 1.824.432.536.28.956.668 1.26 1.164.304.496.456 1.072.456 1.728 0 .64-.152 1.212-.456 1.716a3.248 3.248 0 0 1-1.26 1.176c-.536.288-1.144.432-1.824.432Zm0-1.536c.312 0 .592-.072.84-.216.248-.144.444-.348.588-.612.144-.272.216-.592.216-.96 0-.376-.072-.696-.216-.96a1.548 1.548 0 0 0-.588-.612 1.642 1.642 0 0 0-.84-.216c-.312 0-.592.072-.84.216a1.633 1.633 0 0 0-.6.612c-.144.264-.216.584-.216.96 0 .368.072.688.216.96.152.264.352.468.6.612.248.144.528.216.84.216Zm8.872 1.536c-.696 0-1.316-.14-1.86-.42a3.286 3.286 0 0 1-1.284-1.188 3.257 3.257 0 0 1-.456-1.716c0-.648.152-1.22.456-1.716a3.2 3.2 0 0 1 1.284-1.176c.544-.288 1.164-.432 1.86-.432.68 0 1.272.144 1.776.432.504.28.876.684 1.116 1.212l-1.452.78a1.67 1.67 0 0 0-.636-.672 1.596 1.596 0 0 0-.816-.216c-.32 0-.608.072-.864.216-.256.144-.46.348-.612.612-.144.264-.216.584-.216.96s.072.696.216.96c.152.264.356.468.612.612.256.144.544.216.864.216.296 0 .568-.068.816-.204.256-.144.468-.372.636-.684l1.452.792c-.24.52-.612.924-1.116 1.212-.504.28-1.096.42-1.776.42ZM48.273 9V7.74l-.12-.276V5.208c0-.4-.125-.712-.373-.936-.24-.224-.612-.336-1.116-.336-.344 0-.684.056-1.02.168a2.603 2.603 0 0 0-.84.432l-.672-1.308c.352-.248.776-.44 1.272-.576.496-.136 1-.204 1.512-.204.984 0 1.748.232 2.292.696.544.464.816 1.188.816 2.172V9h-1.752Zm-1.969.096c-.504 0-.936-.084-1.296-.252a2.01 2.01 0 0 1-.828-.708 1.79 1.79 0 0 1-.288-.996c0-.384.092-.72.276-1.008.192-.288.492-.512.9-.672.408-.168.94-.252 1.596-.252h1.716V6.3h-1.512c-.44 0-.744.072-.912.216a.696.696 0 0 0-.24.54c0 .24.092.432.276.576.192.136.452.204.78.204.312 0 .592-.072.84-.216.248-.152.428-.372.54-.66l.288.864a1.671 1.671 0 0 1-.744.948c-.36.216-.824.324-1.392.324Zm10.19 0c-.567 0-1.055-.12-1.463-.36-.408-.24-.72-.604-.936-1.092-.216-.496-.324-1.12-.324-1.872 0-.76.112-1.384.336-1.872.232-.488.552-.852.96-1.092.408-.24.884-.36 1.428-.36.608 0 1.152.136 1.632.408.488.272.872.656 1.152 1.152.288.496.432 1.084.432 1.764 0 .672-.144 1.256-.432 1.752-.28.496-.664.884-1.152 1.164a3.252 3.252 0 0 1-1.632.408ZM52.68 9V.096h1.872v3.756l-.12 1.908.036 1.92V9h-1.788Zm3.492-1.44c.312 0 .588-.072.828-.216.248-.144.444-.348.588-.612.152-.272.228-.592.228-.96 0-.376-.076-.696-.228-.96a1.548 1.548 0 0 0-.588-.612 1.578 1.578 0 0 0-.828-.216c-.312 0-.592.072-.84.216a1.548 1.548 0 0 0-.588.612c-.144.264-.216.584-.216.96 0 .368.072.688.216.96.144.264.34.468.588.612.248.144.528.216.84.216Zm8.477 1.536a3.227 3.227 0 0 1-1.44-.312 2.223 2.223 0 0 1-.972-.948c-.232-.432-.348-.98-.348-1.644V2.544h1.872v3.372c0 .536.112.932.336 1.188.232.248.556.372.972.372a1.6 1.6 0 0 0 .768-.18c.224-.128.4-.32.528-.576.128-.264.192-.592.192-.984V2.544h1.872V9h-1.776V7.224l.324.516a2.24 2.24 0 0 1-.96 1.02 2.84 2.84 0 0 1-1.368.336ZM71.122 9V.096h1.872V9h-1.872Zm8.53 0V7.74l-.12-.276V5.208c0-.4-.124-.712-.373-.936-.24-.224-.612-.336-1.116-.336-.344 0-.684.056-1.02.168a2.603 2.603 0 0 0-.84.432l-.672-1.308c.353-.248.776-.44 1.273-.576.495-.136 1-.204 1.511-.204.984 0 1.748.232 2.293.696.544.464.816 1.188.816 2.172V9h-1.752Zm-1.969.096c-.504 0-.936-.084-1.296-.252a2.01 2.01 0 0 1-.828-.708 1.79 1.79 0 0 1-.287-.996c0-.384.091-.72.275-1.008.193-.288.493-.512.9-.672.409-.168.94-.252 1.596-.252h1.716V6.3h-1.511c-.44 0-.745.072-.913.216a.696.696 0 0 0-.24.54c0 .24.093.432.276.576.193.136.453.204.78.204.313 0 .593-.072.84-.216.249-.152.428-.372.54-.66l.288.864a1.671 1.671 0 0 1-.743.948c-.36.216-.825.324-1.392.324ZM84.058 9V2.544h1.788v1.824l-.252-.528c.192-.456.5-.8.924-1.032.424-.24.94-.36 1.548-.36v1.728a2.191 2.191 0 0 0-.216-.012 1.647 1.647 0 0 0-.204-.012c-.512 0-.928.148-1.248.444-.312.288-.468.74-.468 1.356V9h-1.872Zm7.12 2.424c-.337 0-.668-.052-.996-.156a2.2 2.2 0 0 1-.805-.432l.684-1.332a1.625 1.625 0 0 0 1.056.408c.264 0 .472-.064.624-.192.16-.12.305-.324.433-.612l.335-.792.144-.204 2.316-5.568h1.8l-2.916 6.852c-.207.52-.447.928-.72 1.224-.263.296-.56.504-.887.624-.32.12-.676.18-1.069.18Zm1.103-2.172-2.88-6.708h1.933l2.231 5.4-1.284 1.308Z" fill="#FF6B09"/></svg>