<svg width="71" height="13" fill="none" xmlns="http://www.w3.org/2000/svg"><path d="M0 7.204V6.04h12v1.164H0ZM20.33 10l-2.748-8.4h2.016l2.388 7.44h-1.008l2.496-7.44h1.8l2.4 7.44h-.972L29.15 1.6h1.86L28.262 10h-2.088L24.05 3.472h.552L22.418 10H20.33Zm12.348 0V3.544h1.788v1.824l-.252-.528c.192-.456.5-.8.924-1.032.424-.24.94-.36 1.548-.36v1.728a2.191 2.191 0 0 0-.216-.012 1.647 1.647 0 0 0-.204-.012c-.512 0-.928.148-1.248.444-.312.288-.468.74-.468 1.356V10h-1.872Zm6.092 0V3.544h1.872V10H38.77Zm.936-7.356c-.344 0-.624-.1-.84-.3a.973.973 0 0 1-.324-.744c0-.296.108-.544.324-.744.216-.2.496-.3.84-.3s.624.096.84.288a.9.9 0 0 1 .324.72c0 .312-.108.572-.324.78-.208.2-.488.3-.84.3Zm6.274 7.452c-.76 0-1.352-.192-1.776-.576-.424-.392-.636-.972-.636-1.74V2.116h1.872v5.64c0 .272.072.484.216.636.144.144.34.216.588.216.296 0 .548-.08.756-.24l.504 1.32a2.14 2.14 0 0 1-.696.312c-.264.064-.54.096-.828.096Zm-3.408-4.968v-1.44h4.476v1.44h-4.476ZM49.515 10V3.544h1.872V10h-1.872Zm.936-7.356c-.344 0-.624-.1-.84-.3a.973.973 0 0 1-.324-.744c0-.296.108-.544.324-.744.216-.2.496-.3.84-.3s.624.096.84.288a.9.9 0 0 1 .324.72c0 .312-.108.572-.324.78-.208.2-.488.3-.84.3Zm7.557.804c.512 0 .968.104 1.368.312.408.2.728.512.96.936.232.416.348.952.348 1.608V10h-1.872V6.592c0-.52-.116-.904-.348-1.152-.224-.248-.544-.372-.96-.372-.296 0-.564.064-.804.192-.232.12-.416.308-.552.564-.128.256-.192.584-.192.984V10h-1.872V3.544h1.788v1.788l-.336-.54c.232-.432.564-.764.996-.996.432-.232.924-.348 1.476-.348Zm8.416 8.976a6.794 6.794 0 0 1-1.764-.228c-.56-.144-1.028-.364-1.404-.66L64 10.192c.272.224.616.4 1.032.528.424.136.84.204 1.248.204.664 0 1.144-.148 1.44-.444.304-.296.456-.736.456-1.32v-.972l.12-1.62-.024-1.632V3.544h1.776V8.92c0 1.2-.312 2.084-.936 2.652-.624.568-1.52.852-2.688.852Zm-.288-2.736c-.6 0-1.144-.128-1.632-.384a3.176 3.176 0 0 1-1.164-1.092c-.288-.472-.432-1.02-.432-1.644 0-.632.144-1.18.432-1.644a3.049 3.049 0 0 1 1.164-1.092 3.459 3.459 0 0 1 1.632-.384c.544 0 1.024.112 1.44.336.416.216.74.556.972 1.02.232.456.348 1.044.348 1.764 0 .712-.116 1.3-.348 1.764a2.31 2.31 0 0 1-.972 1.02c-.416.224-.896.336-1.44.336Zm.372-1.536c.328 0 .62-.064.876-.192a1.51 1.51 0 0 0 .816-1.392c0-.32-.072-.596-.216-.828a1.43 1.43 0 0 0-.6-.552 1.838 1.838 0 0 0-.876-.204c-.328 0-.62.068-.876.204a1.51 1.51 0 0 0-.612.552 1.538 1.538 0 0 0-.216.828c0 .312.072.588.216.828.152.24.356.428.612.564.256.128.548.192.876.192Z" fill="#FF6B09"/></svg>