<svg width="41" height="48" viewBox="0 0 41 48" fill="none" xmlns="http://www.w3.org/2000/svg">
<g clip-path="url(#clip0_1_3423)">
<path d="M0.84653 47.638C6.00796 47.638 35.8682 47.638 41.0236 47.638C41.2225 43.0562 40.8943 35.4543 38.0773 31.8361L37.9755 31.7062L31.8197 28.6154C31.9534 28.1646 32.0192 27.7516 32.0456 27.448C32.076 27.0836 32.0258 26.7413 31.8957 26.4313C30.8801 24.0011 28.7312 22.7226 27.5491 22.1776C27.9094 21.4519 28.1416 20.6727 28.2538 19.8767C28.9229 19.6882 29.4611 19.1579 29.6376 18.4505L30.3561 15.5314C30.4834 15.0165 30.4035 14.4824 30.1298 14.0283C30.012 13.8324 29.8597 13.6676 29.6889 13.5267C31.7147 8.92504 28.3218 4.58618 28.1369 4.35779C24.4622 0.384782 19.8201 1.12768 19.5747 1.17171C12.8756 2.5745 10.2903 7.70865 11.7499 13.7301C11.3174 14.2091 11.136 14.8764 11.2962 15.5307L12.0182 18.453C12.1933 19.1552 12.7273 19.6836 13.3916 19.8743C13.5966 21.3322 14.2137 22.6508 15.12 23.7135V26.0275C5.50666 30.9506 11.598 27.8098 3.89388 31.7072C3.87865 31.78 0.278955 35.6057 0.813999 46.9452L0.84653 47.638ZM39.6275 46.1834H33.0152V43.4057L37.3885 33.394C39.5794 37.0304 39.6608 43.9736 39.6275 46.1834ZM30.6029 27.3244C30.3477 30.2557 28.7402 29.3697 27.7479 31.628C26.9674 30.7698 26.7327 29.7407 26.9424 28.639C27.3214 26.6163 26.0868 26.0155 26.3919 23.8902L26.4382 23.8415V23.8347C26.4644 23.8054 26.7079 23.5155 26.7783 23.4239C29.3945 24.5643 30.6539 26.6853 30.6029 27.3244ZM16.5684 25.0204C17.7829 25.8628 19.2489 26.3606 20.8258 26.3606C22.3108 26.3606 23.7213 25.9285 24.9305 25.1328C25.0981 26.8037 25.7512 27.1382 25.5195 28.3677C25.476 28.596 25.4525 28.8209 25.4386 29.0421L20.9354 34.1174L15.1788 27.6275L16.5684 26.9018V25.0204H16.5684ZM14.758 18.8091V15.9952C14.758 14.959 14.758 10.848 14.758 11.051C15.4588 9.75481 16.4142 8.81482 17.6016 8.25126C20.7818 10.0506 24.4423 12.7359 26.8971 15.4385C26.8948 18.8801 26.9068 18.8895 26.884 19.1723L26.8824 19.1902C26.6909 22.3155 24.1211 24.9061 20.8258 24.9061C17.6221 24.9061 14.9623 22.3908 14.77 19.1593C14.7601 19.0435 14.758 18.9274 14.758 18.8091ZM13.8612 28.3294L20.9354 36.3042L25.6848 30.9514C25.7933 31.264 25.9456 31.5592 26.1197 31.8444L20.9354 38.3276L13.2046 28.659L13.8612 28.3294ZM28.3455 17.6387V15.3919C28.4091 15.3189 28.9491 14.6998 28.8854 14.7728C28.9153 15.9104 29.0381 14.5677 28.3455 17.6387ZM19.8428 2.60105C20.1301 2.61894 23.9905 2.01386 27.0414 5.30773C27.1615 5.45848 29.6451 8.65836 28.6473 12.1589C28.3058 10.6012 27.7106 8.60514 26.7698 7.65254L25.7416 8.67669C26.6704 9.61747 27.2805 12.4824 27.5129 13.9676C23.2523 9.50928 17.7562 6.68751 17.6808 6.63976C17.4052 6.81119 15.0794 7.25337 13.3902 10.5364L13.3096 10.6934V13.1046C13.2371 13.1054 13.0242 13.1076 13.0967 13.1069C12.0234 7.92535 14.0787 3.8092 19.8428 2.60105ZM12.9441 14.6032L13.3096 16.084V17.6405L12.7021 15.1817C12.613 14.8152 12.8845 14.6762 12.9441 14.6032ZM11.8791 29.3244L20.9354 40.6508L27.0627 32.9873C27.7292 33.5838 28.0497 33.6684 29.4629 34.3951L28.9862 32.7783C28.8653 32.3677 29.3441 31.7094 29.6333 31.4068C30.2789 31.0566 30.817 30.5572 31.2196 29.9405L36.2188 32.4508L31.5668 43.1011V46.1834H10.3033V43.1007L5.64915 32.4519L11.8791 29.3244ZM4.48085 33.3972L8.85492 43.4061V46.1834H2.24255C2.20932 43.9743 2.29135 37.0346 4.48085 33.3972Z" fill="#FF6B09"/>
</g>
<defs>
<clipPath id="clip0_1_3423">
<rect width="39.7409" height="48" fill="white" transform="translate(0.944336)"/>
</clipPath>
</defs>
</svg>
