<svg width="24" height="24" viewBox="0 0 24 24" fill="none" xmlns="http://www.w3.org/2000/svg">
<path d="M3.49259 0.00189639C3.10622 0.0209704 2.72684 0.191997 2.44862 0.510391L0.502737 2.73712C0.505458 2.73051 0.495118 2.73147 0.439985 2.81268C0.410595 2.85458 0.387756 2.90104 0.372316 2.95037C-0.419735 5.57672 0.11122 8.46578 1.40458 11.2136C2.698 13.9614 4.76108 16.5909 7.12967 18.7486C9.49825 20.9064 12.1707 22.5946 14.7188 23.432C17.2669 24.2693 19.7376 24.2582 21.5685 22.8754C21.5884 22.8601 21.6071 22.8432 21.6245 22.8248C21.6725 22.7749 21.6741 22.7686 21.6663 22.7761L21.6737 22.7665L23.6103 20.5494C24.1668 19.9125 24.1219 18.9115 23.51 18.3322L18.9157 13.9826C18.3039 13.4033 17.3424 13.4495 16.7859 14.0864L14.7071 16.4661C13.0197 15.9575 11.5771 15.0952 10.1897 13.7815C8.80206 12.4675 7.84072 11.0534 7.19488 9.35234L9.27302 6.97262C9.82952 6.33577 9.78524 5.33479 9.17335 4.75549L4.57904 0.405874C4.27316 0.116223 3.87958 -0.0172551 3.49317 0.00178113L3.49259 0.00189639ZM3.53627 0.97788C3.67859 0.971271 3.82339 1.02274 3.94168 1.13479L8.53599 5.4844C8.77267 5.70846 8.78875 6.06615 8.57351 6.31247L6.27631 8.9407C6.21857 9.00711 6.17934 9.08867 6.16286 9.17659C6.14638 9.26451 6.15328 9.35546 6.1828 9.4396C6.88 11.4202 8.00469 13.0449 9.55227 14.5103C11.0999 15.9756 12.7587 16.9881 14.7188 17.5235C14.8022 17.5463 14.8901 17.5448 14.9729 17.5193C15.0556 17.4938 15.1301 17.4452 15.1882 17.3787L17.4859 14.7498C17.7011 14.5036 18.0442 14.4873 18.2808 14.7114L22.8757 19.061C23.1124 19.2851 23.1278 19.6421 22.9126 19.8884L20.9919 22.0863C19.4894 23.209 17.3728 23.2719 15.0024 22.493C12.6227 21.7109 10.0393 20.0911 7.75282 18.0081C5.46632 15.9251 3.47653 13.3812 2.25351 10.783C1.04309 8.21143 0.603968 5.61171 1.26977 3.32028L3.14617 1.1736C3.25378 1.05046 3.39389 0.984514 3.53621 0.977621L3.53627 0.97788Z" fill="#FF6B09"/>
</svg>
