<svg aria-hidden="true" style="position:absolute;width:0;height:0;overflow:hidden" xmlns="http://www.w3.org/2000/svg">
  <defs>
    <symbol id="icon-Facebook" viewBox="0 0 31 32">
      <path fill="#436eab" style="fill:var(--color1, #436eab)" d="M27.65.549H3.318c-.88 0-1.724.347-2.346.963S0 2.965 0 3.838v24.12c0 .872.35 1.709.972 2.326s1.466.963 2.346.963h9.487V20.81H8.45v-4.912h4.355v-3.744c0-4.259 2.558-6.611 6.475-6.611 1.876 0 3.838.332 3.838.332v4.18h-2.161c-2.13 0-2.794 1.31-2.794 2.654v3.19h4.754l-.76 4.912h-3.994v10.437h9.487c.88 0 1.724-.347 2.346-.963s.972-1.453.972-2.326V3.839c0-.872-.35-1.709-.972-2.326S28.53.55 27.65.55z" />
    </symbol>
  </defs>
</svg>