<svg width="40" height="40" viewBox="0 0 40 40" fill="none" xmlns="http://www.w3.org/2000/svg">
<g clip-path="url(#clip0_1_2242)">
<path d="M39.3152 7.15454C38.9511 3.74329 36.257 1.04858 32.8455 0.684814C24.2902 -0.228271 15.7098 -0.228271 7.15485 0.684814C3.74329 1.04889 1.04889 3.74329 0.684814 7.15454C-0.228271 15.7095 -0.228271 24.2902 0.684814 32.8452C1.04889 36.2567 3.74329 38.9511 7.15454 39.3152C15.7095 40.2283 24.2902 40.2283 32.8455 39.3152C36.257 38.9511 38.9511 36.2567 39.3152 32.8452C40.2283 24.2902 40.2283 15.7098 39.3152 7.15454V7.15454Z" fill="url(#paint0_radial_1_2242)"/>
<path d="M37.1399 8.60141C36.817 5.57437 34.4262 3.18332 31.3989 2.86014C23.8073 2.0502 16.1932 2.0502 8.60165 2.86014C5.57462 3.18332 3.18356 5.57437 2.86038 8.60141C2.05045 16.193 2.05045 23.8071 2.86038 31.3983C3.18356 34.4257 5.57462 36.8167 8.60165 37.1396C16.1932 37.9499 23.8073 37.9499 31.3986 37.1396C34.4259 36.8167 36.817 34.4257 37.1399 31.3983C37.9501 23.8071 37.9501 16.193 37.1399 8.60141V8.60141Z" fill="url(#paint1_linear_1_2242)"/>
<path d="M0.599609 32.0161C0.627075 32.2926 0.655457 32.5691 0.685059 32.8456C1.04913 36.2568 3.74353 38.9512 7.15509 39.3153C15.7101 40.2284 24.2907 40.2284 32.8457 39.3153C36.2573 38.9512 38.9514 36.2568 39.3154 32.8456C39.345 32.5691 39.3734 32.2926 39.4012 32.0161H0.599609Z" fill="url(#paint2_linear_1_2242)"/>
<path d="M39.315 32.8454C39.8057 28.2485 40.0322 23.6444 39.9955 19.0408L30.8525 9.89771C29.7102 8.59369 28.0418 7.77979 26.0814 7.7093C22.0497 7.56403 18.0052 7.57136 13.9729 7.70991C10.6239 7.82526 8.28198 10.0762 7.6814 13.3846C7.5755 13.9688 7.51202 14.5605 7.42871 15.1489V24.848C7.47479 25.1623 7.54254 25.4751 7.5636 25.7913C7.69788 27.8036 8.5249 29.5272 9.84906 30.6933L19.1533 39.9972C23.7193 40.0292 28.2856 39.8022 32.8453 39.3154C36.2568 38.9514 38.9509 36.257 39.315 32.8454V32.8454Z" fill="url(#paint3_linear_1_2242)"/>
<path d="M39.3149 32.8455C38.9511 36.2564 36.2561 38.9514 32.8452 39.3152C28.2861 39.8016 23.7189 40.029 19.1534 39.9969L9.86328 30.7068C10.9402 31.6495 12.3441 32.2235 13.9731 32.2848C18.0045 32.4362 22.0499 32.4322 26.0812 32.287C29.7275 32.1551 32.366 29.4565 32.4799 25.8102C32.6013 21.9388 32.6013 18.0573 32.4799 14.1858C32.428 12.5037 31.8375 11.0236 30.8585 9.90356L39.9957 19.0408C40.0317 23.6438 39.8053 28.2486 39.3149 32.8455Z" fill="url(#paint4_linear_1_2242)"/>
<path d="M24.7195 15.6686C23.5482 14.3933 21.8676 13.5931 19.9996 13.5931C16.4614 13.5931 13.5928 16.4618 13.5928 20C13.5928 21.868 14.3929 23.5486 15.6683 24.7198L30.4916 39.5431C31.2762 39.4748 32.0608 39.3988 32.8448 39.3152C36.2563 38.9511 38.9507 36.2567 39.3148 32.8452C39.3984 32.0612 39.4744 31.2765 39.5428 30.4919L24.7195 15.6686Z" fill="url(#paint5_linear_1_2242)"/>
<path d="M39.9227 24.3088L27.9927 12.3792C27.7144 12.0139 27.2759 11.7767 26.7812 11.7767C25.9395 11.7767 25.2568 12.4591 25.2568 13.3011C25.2568 13.7958 25.494 14.2343 25.8593 14.5126L39.7094 28.363C39.8033 27.012 39.8745 25.6604 39.9227 24.3088V24.3088Z" fill="url(#paint6_linear_1_2242)"/>
<path d="M7.42871 15.1489C7.51202 14.5605 7.5755 13.9688 7.6814 13.3846C8.28168 10.0762 10.6239 7.82526 13.9729 7.70991C18.0052 7.57136 22.0497 7.56403 26.0814 7.7093C29.7264 7.84052 32.3661 10.5395 32.48 14.1857C32.6011 18.0575 32.6011 21.9387 32.48 25.8105C32.3661 29.4567 29.7273 32.1554 26.0817 32.2869C22.05 32.4325 18.0046 32.4362 13.9732 32.2848C10.3276 32.1478 7.80743 29.4427 7.5636 25.791C7.54254 25.4751 7.47479 25.162 7.42871 24.8477C7.42871 21.6146 7.42871 18.3816 7.42871 15.1489V15.1489ZM20.0032 30.126C21.8483 30.126 23.6952 30.1812 25.5378 30.1132C28.4269 30.006 30.204 28.2818 30.2714 25.3955C30.355 21.799 30.355 18.1976 30.2714 14.6008C30.204 11.715 28.4257 9.95051 25.5378 9.88917C21.8724 9.81165 18.2029 9.81226 14.5375 9.88917C11.6716 9.94929 9.88934 11.6781 9.81152 14.5321C9.71265 18.1741 9.71265 21.8225 9.81152 25.4644C9.88934 28.3181 11.6716 30.007 14.5378 30.1132C16.3572 30.1809 18.1813 30.126 20.0032 30.126V30.126Z" fill="url(#paint7_linear_1_2242)"/>
<path d="M7.42871 15.1489C7.51202 14.5605 7.5755 13.9688 7.6814 13.3846C8.28168 10.0762 10.6239 7.82526 13.9729 7.70991C18.0052 7.57136 22.0497 7.56403 26.0814 7.7093C29.7264 7.84052 32.3661 10.5395 32.48 14.1857C32.6011 18.0575 32.6011 21.9387 32.48 25.8105C32.3661 29.4567 29.7273 32.1554 26.0817 32.2869C22.05 32.4325 18.0046 32.4362 13.9732 32.2848C10.3276 32.1478 7.80743 29.4427 7.5636 25.791C7.54254 25.4751 7.47479 25.162 7.42871 24.8477C7.42871 21.6146 7.42871 18.3816 7.42871 15.1489V15.1489ZM20.0032 30.126C21.8483 30.126 23.6952 30.1812 25.5378 30.1132C28.4269 30.006 30.204 28.2818 30.2714 25.3955C30.355 21.799 30.355 18.1976 30.2714 14.6008C30.204 11.715 28.4257 9.95051 25.5378 9.88917C21.8724 9.81165 18.2029 9.81226 14.5375 9.88917C11.6716 9.94929 9.88934 11.6781 9.81152 14.5321C9.71265 18.1741 9.71265 21.8225 9.81152 25.4644C9.88934 28.3181 11.6716 30.007 14.5378 30.1132C16.3572 30.1809 18.1813 30.126 20.0032 30.126V30.126Z" fill="white"/>
<path d="M19.9996 13.5934C16.4614 13.5934 13.5928 16.4617 13.5928 19.9999C13.5928 23.5385 16.4614 26.4068 19.9996 26.4068C23.5381 26.4068 26.4065 23.5385 26.4065 19.9999C26.4065 16.4617 23.5381 13.5934 19.9996 13.5934ZM19.9996 24.201C17.6794 24.201 15.7986 22.3202 15.7986 19.9999C15.7986 17.6797 17.6794 15.7989 19.9996 15.7989C22.3199 15.7989 24.2007 17.6797 24.2007 19.9999C24.2007 22.3202 22.3199 24.201 19.9996 24.201Z" fill="white"/>
<path d="M28.3052 13.3011C28.3052 14.1428 27.6229 14.8251 26.7812 14.8251C25.9395 14.8251 25.2568 14.1428 25.2568 13.3011C25.2568 12.4591 25.9395 11.7767 26.7812 11.7767C27.6229 11.7767 28.3052 12.4591 28.3052 13.3011Z" fill="white"/>
</g>
<defs>
<radialGradient id="paint0_radial_1_2242" cx="0" cy="0" r="1" gradientUnits="userSpaceOnUse" gradientTransform="translate(8.19977 34.9568) scale(44.113)">
<stop stop-color="#FAE100"/>
<stop offset="0.0544" stop-color="#FADC04"/>
<stop offset="0.1167" stop-color="#FBCE0E"/>
<stop offset="0.1829" stop-color="#FCB720"/>
<stop offset="0.2514" stop-color="#FE9838"/>
<stop offset="0.3054" stop-color="#FF7950"/>
<stop offset="0.4922" stop-color="#FF1C74"/>
<stop offset="1" stop-color="#6C1CD1"/>
</radialGradient>
<linearGradient id="paint1_linear_1_2242" x1="15.3419" y1="17.3797" x2="-52.4228" y2="-20.738" gradientUnits="userSpaceOnUse">
<stop stop-color="#A1B5D8" stop-opacity="0"/>
<stop offset="0.3094" stop-color="#90A2BD" stop-opacity="0.309804"/>
<stop offset="0.7554" stop-color="#7C8B9C" stop-opacity="0.756863"/>
<stop offset="1" stop-color="#748290"/>
</linearGradient>
<linearGradient id="paint2_linear_1_2242" x1="20.0003" y1="35.31" x2="20.0003" y2="41.545" gradientUnits="userSpaceOnUse">
<stop stop-color="#FAE100" stop-opacity="0"/>
<stop offset="0.3068" stop-color="#FCA800" stop-opacity="0.305882"/>
<stop offset="0.6275" stop-color="#FE7300" stop-opacity="0.627451"/>
<stop offset="0.8685" stop-color="#FF5200" stop-opacity="0.866667"/>
<stop offset="1" stop-color="#FF4500"/>
</linearGradient>
<linearGradient id="paint3_linear_1_2242" x1="17.7242" y1="17.6681" x2="7.82487" y2="7.7687" gradientUnits="userSpaceOnUse">
<stop stop-color="#833AB4" stop-opacity="0"/>
<stop offset="1" stop-color="#833AB4"/>
</linearGradient>
<linearGradient id="paint4_linear_1_2242" x1="27.4137" y1="36.585" x2="22.4728" y2="13.292" gradientUnits="userSpaceOnUse">
<stop stop-color="#833AB4" stop-opacity="0"/>
<stop offset="1" stop-color="#833AB4"/>
</linearGradient>
<linearGradient id="paint5_linear_1_2242" x1="29.2938" y1="29.2941" x2="9.44816" y2="9.4485" gradientUnits="userSpaceOnUse">
<stop stop-color="#833AB4" stop-opacity="0"/>
<stop offset="1" stop-color="#833AB4"/>
</linearGradient>
<linearGradient id="paint6_linear_1_2242" x1="30.7663" y1="17.2862" x2="24.2038" y2="10.7236" gradientUnits="userSpaceOnUse">
<stop stop-color="#833AB4" stop-opacity="0"/>
<stop offset="1" stop-color="#833AB4"/>
</linearGradient>
<linearGradient id="paint7_linear_1_2242" x1="27.9419" y1="12.1135" x2="11.761" y2="28.2944" gradientUnits="userSpaceOnUse">
<stop stop-color="#833AB4"/>
<stop offset="0.0922" stop-color="#9C3495"/>
<stop offset="0.2927" stop-color="#DC2546"/>
<stop offset="0.392" stop-color="#FD1D1D"/>
<stop offset="0.5589" stop-color="#FC6831"/>
<stop offset="0.6887" stop-color="#FC9B40"/>
<stop offset="0.7521" stop-color="#FCAF45"/>
<stop offset="0.7806" stop-color="#FDB750"/>
<stop offset="0.8656" stop-color="#FECB6A"/>
<stop offset="0.9415" stop-color="#FFD87A"/>
<stop offset="1" stop-color="#FFDC80"/>
</linearGradient>
<clipPath id="clip0_1_2242">
<rect width="40" height="40" fill="white"/>
</clipPath>
</defs>
</svg>
