<svg aria-hidden="true" style="position:absolute;width:0;height:0;overflow:hidden" xmlns="http://www.w3.org/2000/svg">
    <defs>
        <symbol id="icon-tab-wave" viewBox="0 0 45 32">
            <path fill="#fff" style="fill:var(--color1, #fff)" d="M6.253 27.359C3.605 27.61 1.716 29.035 0 29.251V.001h44.929v19.78c-1.267-.268-6.226 4.211-9.047 5.113-4.151.611-1.61-2.371-11.322 1.856s-15.184.314-18.307.611z"/>
        </symbol>
        <symbol id="icon-mob-wave" viewBox="0 0 19 32">
            <path fill="#fff" style="fill:var(--color1, #fff)" d="M20.816 26.997c-9.712 3.806-15.184.283-18.307.55-.896.077-1.705.274-2.45.51-1.456.46-2.667 1.065-3.803 1.194V.001h44.929v20.722c-1.267-.241-6.226 3.791-9.047 4.604-4.151.55-1.61-2.135-11.322 1.671z"/>
        </symbol>
        <symbol id="icon-desk-wave" viewBox="0 0 58 32">
            <path fill="#fff" style="fill:var(--color1, #fff)" d="M8.089 27.641C4.664 28.004 2.22 30.063 0 30.374V0h58.119v16.692c-1.638-.387-8.054 6.083-11.703 7.386-5.369.882-2.082-3.425-14.646 2.681s-19.642.454-23.681.882z"/>
        </symbol>
        <symbol id="icon-tab-mob-image1" viewBox="0 0 31 32">
            <path fill="#ff6b09" style="fill:var(--color2, #ff6b09)" d="M7.16 26.167h17.28c.086-1.971-.056-5.24-1.267-6.796l-.044-.056-2.648-1.329a2.54 2.54 0 0 0 .097-.502.932.932 0 0 0-.064-.437c-.437-1.045-1.361-1.595-1.869-1.83.155-.312.255-.647.303-.99a.849.849 0 0 0 .595-.613l.309-1.255a.853.853 0 0 0-.097-.647.856.856 0 0 0-.19-.216c.871-1.979-.588-3.845-.668-3.944-1.581-1.709-3.577-1.389-3.683-1.37-2.881.603-3.993 2.812-3.366 5.402a.85.85 0 0 0-.195.774l.311 1.257a.848.848 0 0 0 .591.611c.088.627.354 1.194.743 1.651v.995c-4.135 2.117-1.515.767-4.828 2.443-.007.031-1.555 1.677-1.325 6.554l.014.298zm16.68-.626h-2.844v-1.195l1.881-4.306c.942 1.564.977 4.55.963 5.501zm-3.882-8.111c-.11 1.261-.801.88-1.228 1.851-.336-.369-.437-.812-.346-1.286.163-.87-.368-1.128-.237-2.043l.02-.021v-.003c.011-.013.116-.137.146-.177 1.125.491 1.667 1.403 1.645 1.678zm-6.036-.991a3.205 3.205 0 0 0 3.596.048c.072.719.353.863.253 1.391a2.269 2.269 0 0 0-.035.29l-1.937 2.183-2.476-2.791.598-.312v-.809zm-.779-2.672V10.43c.301-.558.712-.962 1.223-1.204 1.368.774 2.942 1.929 3.998 3.091-.001 1.48.004 1.484-.006 1.606l-.001.008a2.613 2.613 0 0 1-2.605 2.458 2.62 2.62 0 0 1-2.61-2.623zm-.385 4.095 3.043 3.43 2.043-2.302c.047.134.112.261.187.384l-2.23 2.788-3.325-4.159.282-.142zm6.229-4.598v-.966l.232-.266c.013.489.066-.088-.232 1.233zM15.33 6.796c.124.008 1.784-.253 3.096 1.164.052.065 1.12 1.441.691 2.947-.147-.67-.403-1.528-.807-1.938l-.442.441c.399.405.662 1.637.762 2.276-1.833-1.918-4.196-3.131-4.229-3.152-.119.074-1.119.264-1.845 1.676l-.035.068v1.037l-.092.001c-.462-2.229.422-3.999 2.902-4.519zm-2.967 5.162.157.637v.669l-.261-1.058c-.038-.158.078-.217.104-.249zm-.458 6.332 3.895 4.872 2.635-3.296c.287.257.425.293 1.032.606l-.205-.695c-.052-.177.154-.46.278-.59.278-.151.509-.365.682-.631l2.15 1.08-2.001 4.581v1.326h-9.146v-1.326l-2.002-4.58 2.68-1.345zm-3.182 1.752 1.881 4.305v1.195H7.76c-.014-.95.021-3.935.963-5.499z"/>
            <path fill="none" stroke="#ff6b09" style="stroke:var(--color2, #ff6b09)" stroke-width="1.032" d="M30.877 4.767V.517H.516v30.968h30.361v-4.25"/>
        </symbol>
        <symbol id="icon-tab-mob-image2" viewBox="0 0 31 32">
            <path fill="#ff6b09" style="fill:var(--color2, #ff6b09)" d="M25.116 5.077H14.703a1.23 1.23 0 0 0-1.229 1.229v4.31l-7.736 3.247a.251.251 0 0 0-.032.448l.987.59v6.292A1.137 1.137 0 0 0 5.81 22.3v.607c0 .139.113.252.252.252h1.767a.252.252 0 0 0 .252-.252V22.3c0-.54-.379-.99-.883-1.106v-5.991l.78.467c-.024.18-.003-.313-.011 2.929 0 1.066 2.73 1.637 5.509 1.67v4.91a1.228 1.228 0 0 0 1.228 1.227h10.413a1.23 1.23 0 0 0 1.228-1.228V6.305c0-.669-.553-1.229-1.227-1.229zM7.576 22.301v.355H6.313v-.355a.632.632 0 1 1 1.263 0zm17.54 3.601H14.703a.725.725 0 0 1-.725-.723v-1.702h11.86v1.703a.728.728 0 0 1-.722.722zm.722-2.929h-11.86v-2.702c1.356-.016 5.512-.314 5.512-1.671-.002-2.037.004-2.863-.006-2.933l2.262-1.355a.252.252 0 0 0-.032-.448l-7.736-3.247V8.513h11.86v14.461zm-12.112-6.046c-1.397 0-4.088.18-5.257.944.007-2.335-.081-2.183.206-2.38.726-.535 2.803-.908 5.05-.908.98 0 5.26.269 5.26 1.176v2.113c-1.18-.77-3.857-.944-5.26-.944zm.252-10.621c0-.399.325-.724.724-.724h10.413c.4 0 .723.329.723.724v1.702h-11.86V6.306zm-.252 4.751 7.334 3.078-1.817 1.087c-.966-.958-4.162-1.144-5.517-1.144-1.356 0-4.552.186-5.517 1.144l-1.818-1.088 7.334-3.078zM8.469 18.6c0-.408 1.805-1.169 5.257-1.169 3.453 0 5.26.761 5.26 1.169s-1.807 1.169-5.26 1.169c-3.451 0-5.257-.761-5.257-1.169z"/>
            <path fill="#ff6b09" style="fill:var(--color2, #ff6b09)" d="M19.909 23.857a.834.834 0 0 0 0 1.667.834.834 0 0 0 0-1.667zm0 1.163a.33.33 0 1 1 0-.659.33.33 0 0 1 0 .659zM20.87 6.543h-1.922v.504h1.922v-.504z"/>
            <path fill="none" stroke="#ff6b09" style="stroke:var(--color2, #ff6b09)" stroke-width="1.032" d="M30.877 4.767V.517H.516v30.968h30.361v-4.25"/>
        </symbol>
        <symbol id="icon-tab-mob-image3" viewBox="0 0 31 32">
            <path fill="#ff6b09" style="fill:var(--color2, #ff6b09)" d="M7.059 14.543c0 .23-.35.23-.35 0a8.867 8.867 0 0 1 8.866-8.866 8.865 8.865 0 0 1 8.866 8.866c0 .23-.347.23-.347 0 0-3.309-5.438-3.311-5.438 0 0 .23-.358.23-.358 0 0-3.301-5.446-3.301-5.446 0 0 .23-.358.23-.358 0 0-3.294-5.435-3.317-5.435 0zm5.467-1.285c.094-1.905.393-3.612.829-4.916.347-1.036.787-1.823 1.285-2.265a8.523 8.523 0 0 0-7.441 6.917c1.287-1.856 4.259-1.708 5.327.264zm5.745-.086c-.096-1.831-.387-3.47-.806-4.72-1.08-3.234-2.7-3.234-3.78 0-.419 1.25-.707 2.888-.806 4.72 1.162-1.974 4.23-1.974 5.391 0zm5.681-.178a8.518 8.518 0 0 0-7.441-6.917c.5.442.938 1.229 1.285 2.265.435 1.304.735 3.012.829 4.916 1.074-1.982 4.054-2.099 5.327-.264zM14.412 18.6v-1.8c-.324.216-.58.549-.58.955 0 .396.259.657.58.846zm.35.559c-.622-.285-1.277-.618-1.277-1.405 0-.812.617-1.218 1.277-1.522v2.927zM16.739 21.316v1.821c.329-.218.586-.553.586-.959 0-.4-.264-.67-.586-.862zm-.347-.561c.624.289 1.283.632 1.283 1.423 0 .814-.622 1.22-1.283 1.522v-2.945z"/>
            <path fill="#ff6b09" style="fill:var(--color2, #ff6b09)" d="M16.739 14.751c1.432.331 2.903 1.402 2.903 3.004 0 1.371-2.317 1.321-2.317 0 0-.408-.257-.743-.586-.959v2.562c1.325.433 2.907 1.21 2.907 2.821 0 1.603-1.471 2.673-2.907 3.001-.006 1.526-2.323 1.524-2.327-.002-.816-.188-1.526-.569-2.039-1.074-.538-.532-.856-1.199-.856-1.926 0-1.35 2.315-1.35 2.315 0 0 .404.255.737.58.952v-2.56c-1.314-.425-2.905-1.224-2.905-2.821 0-1.603 1.471-2.673 2.905-3.001.006-1.526 2.323-1.524 2.327.002zm-1.978.004v.278c-1.363.27-2.907 1.143-2.907 2.717 0 1.513 1.695 2.191 2.907 2.566v3.382c-.655-.299-1.277-.703-1.277-1.52 0-.892-1.62-.892-1.62 0 0 .63.28 1.212.753 1.677.601.594 1.329.877 2.143 1.038v.28c0 1.074 1.63 1.074 1.63 0v-.278c1.367-.272 2.905-1.145 2.905-2.717 0-1.528-1.691-2.185-2.905-2.568v-3.38c.657.299 1.283.703 1.283 1.524 0 .869 1.618.904 1.618 0 0-1.572-1.536-2.447-2.901-2.719v-.28c0-1.074-1.63-1.074-1.63 0z"/>
            <path fill="none" stroke="#ff6b09" style="stroke:var(--color2, #ff6b09)" stroke-width="1.032" d="M30.877 4.767V.517H.516v30.968h30.361v-4.25"/>
        </symbol>
        <symbol id="icon-desk-image1" viewBox="0 0 31 32">
            <path fill="#ff6b09" style="fill:var(--color2, #ff6b09)" d="M7.953 23.273h12.362c.061-1.41-.04-3.749-.907-4.862l-.031-.04-1.894-.951c.041-.139.061-.266.07-.359a.666.666 0 0 0-.046-.313c-.313-.748-.974-1.141-1.337-1.309.111-.223.182-.463.217-.708a.609.609 0 0 0 .426-.439l.221-.898a.607.607 0 0 0-.206-.617c.623-1.416-.421-2.751-.478-2.821-1.131-1.222-2.559-.994-2.635-.98-2.061.432-2.857 2.011-2.408 3.864a.61.61 0 0 0-.14.554l.222.899a.605.605 0 0 0 .423.437c.063.449.253.854.532 1.181v.712c-2.958 1.515-1.084.548-3.454 1.748-.005.022-1.112 1.2-.948 4.689l.01.213zm11.932-.447H17.85v-.855l1.346-3.081c.674 1.119.699 3.255.689 3.935zm-2.776-5.803c-.079.902-.573.629-.878 1.324a1.025 1.025 0 0 1-.248-.92c.117-.622-.263-.807-.169-1.461l.014-.015v-.002c.008-.009.083-.098.105-.126.805.351 1.193 1.003 1.177 1.2zm-4.319-.709a2.294 2.294 0 0 0 2.573.034c.052.514.253.617.181.995-.013.07-.021.139-.025.207l-1.386 1.562-1.771-1.997.428-.223v-.579zm-.557-1.911v-2.387c.216-.399.51-.688.875-.861.979.554 2.105 1.38 2.86 2.211-.001 1.059.003 1.062-.004 1.149l-.001.005a1.87 1.87 0 0 1-1.864 1.759 1.873 1.873 0 0 1-1.867-1.876zm-.276 2.929 2.177 2.454 1.461-1.647c.033.096.08.187.134.275l-1.595 1.995-2.379-2.975.202-.101zm4.457-3.289v-.691l.166-.191c.009.35.047-.063-.166.882zm-2.616-4.627c.088.005 1.276-.181 2.215.833.037.046.801 1.031.494 2.108-.105-.479-.288-1.093-.578-1.387l-.316.315c.286.289.474 1.171.545 1.628-1.311-1.372-3.002-2.24-3.025-2.255-.085.053-.8.189-1.32 1.199l-.025.048v.742l-.066.001c-.33-1.594.302-2.861 2.076-3.233zm-2.123 3.693.112.456v.479l-.187-.757c-.027-.113.056-.156.074-.178zm-.328 4.529 2.787 3.485 1.885-2.358c.205.184.304.21.739.433l-.147-.497c-.037-.126.11-.329.199-.422.199-.108.364-.261.488-.451l1.538.772-1.431 3.277v.948h-6.543v-.949L9.43 18.599l1.917-.962zm-2.276 1.253 1.346 3.08v.855H8.382c-.01-.68.015-2.815.689-3.934z"/>
            <path fill="none" stroke="#ff6b09" style="stroke:var(--color2, #ff6b09)" stroke-width=".615" d="M31.008 4.615V.307H.307v31.385h30.701v-4.308"/>
        </symbol>
        <symbol id="icon-desk-image2" viewBox="0 0 31 32">
            <path fill="#ff6b09" style="fill:var(--color2, #ff6b09)" d="M20.406 8.558H13.29a.841.841 0 0 0-.84.84v2.946l-5.287 2.219c-.06.025-.101.082-.105.146s.027.127.083.16l.674.403v4.3a.776.776 0 0 0-.603.756v.414c0 .095.077.172.172.172h1.207a.172.172 0 0 0 .172-.172v-.414a.777.777 0 0 0-.604-.756v-4.094l.533.319c-.016.123-.002-.214-.008 2.002 0 .729 1.866 1.119 3.765 1.141v3.356a.84.84 0 0 0 .84.838h7.116a.84.84 0 0 0 .839-.839V9.397a.846.846 0 0 0-.839-.84zM8.42 20.328v.242h-.863v-.242a.432.432 0 1 1 .863 0zm11.986 2.462H13.29a.494.494 0 0 1-.496-.494v-1.163h8.105v1.164c0 .27-.225.494-.494.494zm.494-2.002h-8.105v-1.847c.927-.011 3.767-.215 3.767-1.142-.001-1.392.002-1.957-.004-2.005l1.546-.926a.171.171 0 0 0-.022-.306l-5.286-2.219v-1.438h8.105v9.883zm-8.278-4.132c-.955 0-2.794.123-3.592.645.005-1.595-.055-1.491.141-1.627.496-.365 1.915-.62 3.451-.62.67 0 3.595.184 3.595.803v1.444c-.806-.526-2.636-.645-3.595-.645zm.173-7.258c0-.273.222-.495.495-.495h7.116c.273 0 .494.225.494.495v1.163h-8.105V9.398zm-.173 3.246 5.012 2.104-1.242.743c-.66-.655-2.844-.782-3.77-.782-.927 0-3.111.127-3.77.782l-1.242-.743 5.012-2.104zM9.03 17.799c0-.279 1.234-.799 3.592-.799 2.36 0 3.595.52 3.595.799s-1.235.799-3.595.799c-2.359 0-3.592-.52-3.592-.799z"/>
            <path fill="#ff6b09" style="fill:var(--color2, #ff6b09)" d="M16.848 21.392a.57.57 0 1 0 0 1.139.57.57 0 0 0 0-1.139zm0 .794a.225.225 0 1 1 0-.45.225.225 0 0 1 0 .45zM17.505 9.56h-1.313v.344h1.313V9.56z"/>
            <path fill="none" stroke="#ff6b09" style="stroke:var(--color2, #ff6b09)" stroke-width=".615" d="M31.077 4.615V.307H.308v31.385h30.769v-4.308"/>
        </symbol>
        <symbol id="icon-desk-image3" viewBox="0 0 31 32">
            <path fill="#ff6b09" style="fill:var(--color2, #ff6b09)" d="M7.942 14.958c0 .165-.25.165-.25 0a6.343 6.343 0 0 1 12.686.001c0 .165-.249.165-.249 0 0-2.367-3.89-2.369-3.89 0 0 .165-.256.165-.256 0 0-2.361-3.896-2.361-3.896 0 0 .165-.256.165-.256 0 0-2.357-3.888-2.373-3.888 0zm3.911-.919c.067-1.363.281-2.584.593-3.517.249-.741.563-1.304.919-1.62a6.097 6.097 0 0 0-5.323 4.949c.921-1.328 3.047-1.222 3.811.189zm4.11-.062c-.069-1.31-.277-2.482-.576-3.376-.773-2.313-1.931-2.313-2.704 0-.299.894-.506 2.066-.576 3.376.831-1.412 3.026-1.412 3.857 0zm4.064-.127a6.094 6.094 0 0 0-5.323-4.949c.358.316.671.879.919 1.62.311.933.526 2.155.593 3.517.768-1.418 2.9-1.502 3.811-.189zM13.202 17.86v-1.288c-.232.154-.415.392-.415.683 0 .283.186.47.415.605zm.25.4c-.445-.204-.913-.442-.913-1.005 0-.581.442-.872.913-1.089v2.094zM14.867 19.803v1.303c.235-.156.419-.395.419-.686 0-.286-.189-.479-.419-.617zm-.248-.401c.446.207.918.452.918 1.018 0 .582-.445.873-.918 1.089v-2.107z"/>
            <path fill="#ff6b09" style="fill:var(--color2, #ff6b09)" d="M14.867 15.106c1.024.237 2.077 1.003 2.077 2.149 0 .981-1.658.945-1.658 0 0-.292-.184-.532-.419-.686v1.833c.948.31 2.08.865 2.08 2.018 0 1.147-1.053 1.912-2.08 2.147-.005 1.092-1.662 1.09-1.665-.001-.584-.135-1.092-.407-1.458-.768-.385-.38-.612-.858-.612-1.378 0-.966 1.656-.966 1.656 0 0 .289.183.527.415.681V19.27c-.94-.304-2.078-.876-2.078-2.018 0-1.147 1.053-1.912 2.078-2.147.005-1.092 1.662-1.09 1.665.002zm-1.415.003v.199c-.975.193-2.08.818-2.08 1.944 0 1.083 1.213 1.568 2.08 1.836v2.42c-.469-.214-.913-.503-.913-1.087 0-.638-1.159-.638-1.159 0 0 .451.201.867.539 1.199.43.425.951.627 1.533.743v.201c0 .768 1.166.768 1.166 0v-.199c.978-.195 2.078-.819 2.078-1.944 0-1.093-1.21-1.563-2.078-1.837v-2.418c.47.214.918.503.918 1.09 0 .621 1.157.647 1.157 0 0-1.125-1.099-1.75-2.075-1.945v-.201c0-.768-1.166-.768-1.166 0z"/>
            <path fill="none" stroke="#ff6b09" style="stroke:var(--color2, #ff6b09)" stroke-width=".615" d="M31.077 4.615V.307H.308v31.385h30.769v-4.308"/>
        </symbol>
        <symbol id="icon-mob-tab-check" viewBox="0 0 41 32">
            <path fill="#ff6b09" style="fill:var(--color2, #ff6b09)" d="M36.305 1.514a31.467 31.467 0 0 0-4.494 2.379c-2.878 1.797-5.508 3.936-7.976 6.218-2.466 2.287-4.763 4.735-6.934 7.28-.543.636-2.974 3.47-2.974 3.47L3.816 6.481-.001 16.523 13.672 32c1.328-2.551 2.605-5.07 3.859-7.258.311-.556.638-1.08.949-1.612 0 0 1.605-2.677 2.027-3.352 1.687-2.697 3.511-5.325 5.52-7.821 2.011-2.491 4.197-4.87 6.675-6.961a29.721 29.721 0 0 1 3.952-2.872c1.403-.848 2.894-1.591 4.489-2.125-1.659.31-3.278.848-4.838 1.514z"/>
        </symbol>
        <symbol id="icon-desk-check" viewBox="0 0 40 32">
            <path fill="#ff6b09" style="fill:var(--color2, #ff6b09)" d="M35.296 1.514a30.274 30.274 0 0 0-4.369 2.379c-2.797 1.797-5.355 3.936-7.754 6.218-2.398 2.287-4.63 4.735-6.741 7.28-.528.636-2.892 3.47-2.892 3.47L3.71 6.481-.001 16.523 13.292 32c1.291-2.551 2.533-5.07 3.752-7.258.303-.556.62-1.08.923-1.612 0 0 1.56-2.677 1.97-3.352 1.64-2.697 3.414-5.325 5.366-7.821 1.955-2.491 4.08-4.87 6.489-6.961a29.016 29.016 0 0 1 3.842-2.872c1.364-.848 2.814-1.591 4.365-2.125-1.613.31-3.187.848-4.704 1.514z"/>
        </symbol>
        <symbol id="icon-tab-mob-campfire" viewBox="0 0 24 32">
            <path fill="#ff6b09" style="fill:var(--color2, #ff6b09)" d="M22.407 16.593c-.29-.635-.69-1.261-1.275-1.983-1.475-1.813-1.925-5.857-1.93-5.896a.49.49 0 0 0-.345-.412.514.514 0 0 0-.53.141c-1.76 1.925-1.02 4.897-.62 6.085.11.325.23.708.315 1.096.65 3.137-.605 4.558-.9 4.844-.285.078-.48.039-.66-.15-.62-.664-.825-2.841-.535-5.678a5.679 5.679 0 0 0-.04-1.581c-.612-3.486-2.854-5.722-3.425-6.507-1.57-2.269-1.73-6.046-1.735-6.08a.475.475 0 0 0-.275-.417.508.508 0 0 0-.505.034c-2.62 1.741-2.395 5.935-2.03 8.276.085.543.25 1.096.535 1.794 1.015 2.497-.2 5.721-.21 5.75s-.02.053-.025.082c-.155.795-.415 1.27-.705 1.27a.34.34 0 0 1-.095-.015c-.355-.073-.54-.441-.545-.761-.02-4.136-4.265-5.527-4.31-5.542a.506.506 0 0 0-.53.145.468.468 0 0 0-.07.533c.05.102.21.548.1 2.124a17.747 17.747 0 0 1-.785 4.16c-1.01 3.22-.85 6.269-.84 6.415.777 8.257 12.922 9.704 20.13 5.052.79-.509 1.435-1.091 1.91-1.731 2.66-3.588 1.095-8.461-.07-11.05zM3.932 24.481a.488.488 0 0 1-.47.509h-.03a.493.493 0 0 1-.5-.456 17.1 17.1 0 0 1 .02-2.255.501.501 0 0 1 .535-.451.492.492 0 0 1 .465.519 15.307 15.307 0 0 0-.02 2.133zm.245-4.295a.493.493 0 0 1-.495.427c-.02 0-.04 0-.065-.005a.492.492 0 0 1-.435-.538l.24-1.872a.503.503 0 0 1 .56-.422c.275.034.47.276.435.543l-.24 1.867zM19.024 6.633a.487.487 0 0 1-.418-.553c.031-.197.212-1.205.702-1.713.189-.196.505-.206.707-.022s.212.49.023.685c-.208.215-.384.829-.443 1.197a.499.499 0 0 1-.571.405zM.796 9.048C.7 8.687.462 8.093.234 7.899c-.208-.177-.229-.483-.046-.684s.497-.222.706-.045c.539.458.82 1.445.871 1.638a.485.485 0 0 1-.36.59.502.502 0 0 1-.609-.349z"/>
        </symbol>
        <symbol id="icon-desk-campfire" viewBox="0 0 23 32">
            <path fill="#ff6b09" style="fill:var(--color2, #ff6b09)" d="M21.909 16.593c-.284-.635-.675-1.261-1.247-1.983-1.442-1.813-1.882-5.857-1.887-5.896a.488.488 0 0 0-.337-.412.495.495 0 0 0-.518.141c-1.721 1.925-.997 4.897-.606 6.085.108.325.225.708.308 1.096.636 3.137-.592 4.558-.88 4.844-.279.078-.469.039-.645-.15-.606-.664-.807-2.841-.523-5.678a5.797 5.797 0 0 0-.039-1.581c-.598-3.486-2.791-5.722-3.349-6.507C10.651 4.283 10.494.506 10.49.472a.487.487 0 0 0-.763-.383C7.165 1.83 7.385 6.024 7.742 8.365c.083.543.244 1.096.523 1.794.992 2.497-.196 5.721-.205 5.75s-.02.053-.024.082c-.152.795-.406 1.27-.689 1.27a.327.327 0 0 1-.093-.015c-.347-.073-.528-.441-.533-.761-.02-4.136-4.17-5.527-4.214-5.542a.487.487 0 0 0-.586.678c.049.102.205.548.098 2.124a18.09 18.09 0 0 1-.768 4.16C.263 21.124.42 24.174.43 24.32c.759 8.257 12.635 9.704 19.683 5.052.772-.509 1.403-1.091 1.868-1.731 2.601-3.588 1.071-8.461-.068-11.05zM3.845 24.481a.484.484 0 0 1-.46.509h-.029a.487.487 0 0 1-.489-.456c-.044-.708-.034-1.45.02-2.255a.49.49 0 0 1 .978.068 15.622 15.622 0 0 0-.02 2.133zm.239-4.295a.485.485 0 0 1-.484.427c-.02 0-.039 0-.064-.005a.489.489 0 0 1-.425-.538l.235-1.871a.494.494 0 0 1 .548-.422c.269.034.46.276.425.543l-.235 1.867zM18.602 6.633a.484.484 0 0 1-.408-.553c.03-.197.207-1.205.686-1.713.185-.196.493-.206.691-.022s.207.49.022.685c-.203.215-.376.829-.433 1.197a.489.489 0 0 1-.558.405zM.778 9.048C.684 8.687.452 8.093.229 7.899c-.203-.177-.223-.483-.045-.684s.486-.222.69-.045c.527.458.802 1.445.852 1.638a.49.49 0 0 1-.947.241z"/>
        </symbol>
        <symbol id="icon-tab-phone" viewBox="0 0 32 32">
            <path fill="#ff6b09" style="fill:var(--color2, #ff6b09)" d="M4.657.003a1.969 1.969 0 0 0-1.392.678L.67 3.65c.004-.009-.01-.008-.084.101a.656.656 0 0 0-.09.184C-.56 7.437.148 11.289 1.872 14.953S6.347 22.123 9.505 25c3.158 2.877 6.721 5.128 10.119 6.245s6.692 1.102 9.133-.742a.678.678 0 0 0 .075-.067c.064-.067.066-.075.056-.065l.01-.013 2.582-2.956c.742-.849.682-2.184-.134-2.956l-6.126-5.799a1.965 1.965 0 0 0-2.84.138l-2.772 3.173c-2.25-.678-4.173-1.828-6.023-3.579s-3.132-3.637-3.993-5.906L12.363 9.3c.742-.849.683-2.184-.133-2.956L6.104.544A1.962 1.962 0 0 0 4.656.005h-.001zm.058 1.301c.19-.009.383.06.541.209l6.126 5.799a.788.788 0 0 1 .05 1.104L8.369 11.92a.675.675 0 0 0-.124.666c.93 2.641 2.429 4.807 4.493 6.761s4.275 3.304 6.889 4.018a.61.61 0 0 0 .626-.193l3.064-3.505a.716.716 0 0 1 1.06-.051l6.127 5.799a.786.786 0 0 1 .049 1.103l-2.561 2.931c-2.003 1.497-4.825 1.581-7.986.542-3.173-1.043-6.617-3.203-9.666-5.98s-5.702-6.169-7.332-9.633C1.394 10.949.809 7.483 1.696 4.428l2.502-2.862a.736.736 0 0 1 .52-.261z"/>
        </symbol>
        <symbol id="icon-mob-phone" viewBox="0 0 32 32">
            <path fill="#ff6b09" style="fill:var(--color2, #ff6b09)" d="M4.657.003a1.969 1.969 0 0 0-1.392.678L.67 3.65c.004-.009-.01-.008-.084.101a.656.656 0 0 0-.09.184C-.56 7.437.148 11.289 1.872 14.953S6.347 22.123 9.505 25s6.721 5.128 10.119 6.244c3.397 1.116 6.692 1.102 9.133-.742a.678.678 0 0 0 .075-.068c.064-.067.066-.075.056-.065l.01-.013L31.48 27.4c.742-.849.682-2.184-.134-2.956l-6.126-5.8a1.965 1.965 0 0 0-2.84.138l-2.772 3.173c-2.25-.678-4.173-1.828-6.023-3.58s-3.132-3.637-3.993-5.905l2.771-3.173c.742-.849.683-2.184-.133-2.956L6.104.542A1.962 1.962 0 0 0 4.656.003h-.001zm.058 1.301c.19-.009.383.06.541.209l6.126 5.799a.788.788 0 0 1 .05 1.104L8.369 11.92a.675.675 0 0 0-.124.666c.93 2.641 2.429 4.807 4.493 6.761s4.275 3.304 6.889 4.018a.61.61 0 0 0 .626-.193l3.064-3.505a.716.716 0 0 1 1.06-.051l6.127 5.8a.786.786 0 0 1 .049 1.103l-2.561 2.93c-2.003 1.497-4.826 1.581-7.986.542-3.173-1.043-6.617-3.202-9.666-5.98s-5.702-6.169-7.332-9.634C1.394 10.948.809 7.482 1.696 4.427l2.502-2.862a.736.736 0 0 1 .52-.261z"/>
        </symbol>
        <symbol id="icon-desk-phone" viewBox="0 0 32 32">
            <path fill="#ff6b09" style="fill:var(--color2, #ff6b09)" d="M4.657.003a1.969 1.969 0 0 0-1.392.678L.67 3.65c.004-.009-.01-.008-.084.101a.656.656 0 0 0-.09.184C-.56 7.437.148 11.289 1.872 14.953S6.347 22.123 9.505 25c3.158 2.877 6.721 5.128 10.119 6.244s6.692 1.102 9.133-.742a.536.536 0 0 0 .075-.068c.064-.067.066-.075.056-.065l.01-.013L31.48 27.4c.742-.849.682-2.184-.134-2.956l-6.126-5.799a1.965 1.965 0 0 0-2.84.138l-2.772 3.173c-2.25-.678-4.173-1.828-6.023-3.58s-3.132-3.637-3.993-5.905l2.771-3.173c.742-.849.683-2.184-.133-2.956L6.104.542A1.962 1.962 0 0 0 4.656.003h-.001zm.058 1.301c.19-.009.383.06.541.209l6.126 5.8a.788.788 0 0 1 .05 1.104l-3.063 3.504a.667.667 0 0 0-.124.665c.93 2.641 2.429 4.807 4.493 6.761s4.275 3.304 6.889 4.018a.612.612 0 0 0 .626-.193l3.064-3.505a.716.716 0 0 1 1.06-.051l6.127 5.8a.786.786 0 0 1 .049 1.103l-2.561 2.93c-2.003 1.497-4.826 1.581-7.986.542-3.173-1.043-6.617-3.202-9.666-5.98s-5.702-6.169-7.332-9.633C1.394 10.949.809 7.483 1.696 4.428l2.502-2.862a.736.736 0 0 1 .52-.261z"/>
        </symbol>
        <symbol id="icon-mob-cross" viewBox="0 0 32 32">
            <path fill="none" stroke="#fff" style="stroke:var(--color1, #fff)" stroke-linecap="round" stroke-width="3.765" d="M1.882 29.168 29.168 1.882M29.169 29.168 1.883 1.882"/>
        </symbol>
        <symbol id="icon-mob-logo" viewBox="0 0 91 32">
            <path   d="M13.608 4.836v12.942H9.947v-5.047H4.955v5.047H1.294V4.836h3.661v4.863h4.992V4.836h3.661zm13.398 7.95c0 .025-.018.314-.055.869h-7.285c.148.518.431.918.851 1.202.431.271.968.407 1.609.407.481 0 .894-.068 1.239-.203a3.63 3.63 0 0 0 1.072-.666l1.849 1.923c-.974 1.085-2.397 1.627-4.271 1.627-1.171 0-2.2-.222-3.088-.666s-1.578-1.06-2.071-1.849c-.481-.789-.721-1.683-.721-2.681 0-.986.234-1.867.703-2.644.481-.789 1.14-1.405 1.978-1.849s1.781-.666 2.829-.666c.998 0 1.904.21 2.718.629a4.58 4.58 0 0 1 1.923 1.793c.481.777.721 1.701.721 2.773zm-5.343-2.7c-.542 0-.998.154-1.368.462-.357.308-.586.727-.684 1.257h4.105c-.099-.53-.333-.949-.703-1.257-.357-.308-.807-.462-1.35-.462zm7.702-6.027h3.513v13.719h-3.513V4.059zm6.536 0h3.513v13.719h-3.513V4.059z"/>
            <path fill="#ff6b09" style="fill:var(--color2, #ff6b09)" d="M5.547 26.596v3.982h-.922v-1.633H2.816v1.633h-.922v-3.982h.922v1.57h1.809v-1.57h.922zm5.049 3.242v.74H7.513v-3.982h3.009v.74H8.428v.865h1.849v.717H8.428v.922h2.167zm1.758-3.242h.922v3.231h1.997v.751h-2.918v-3.982zm4.457 0h.922v3.231h1.997v.751h-2.918v-3.982zm4.457 0h.922v3.982h-.922v-3.982zm4.199 4.05c-.315 0-.62-.042-.916-.125a2.163 2.163 0 0 1-.705-.336l.313-.694c.171.125.374.226.609.302s.47.114.705.114c.262 0 .455-.038.58-.114.125-.08.188-.184.188-.313a.284.284 0 0 0-.114-.233.79.79 0 0 0-.284-.154 5.18 5.18 0 0 0-.466-.125c-.303-.072-.552-.144-.745-.216s-.36-.188-.501-.347c-.137-.159-.205-.372-.205-.637 0-.231.063-.44.188-.626.125-.19.313-.339.563-.449.254-.11.563-.165.927-.165.254 0 .502.03.745.091s.455.148.637.262l-.284.7a2.218 2.218 0 0 0-1.104-.313c-.258 0-.449.042-.575.125-.121.083-.182.193-.182.33s.07.239.21.307c.144.064.362.129.654.193.303.072.552.144.745.216s.358.186.495.341c.14.156.21.366.21.631 0 .228-.064.436-.193.626-.125.186-.315.334-.569.444s-.563.165-.927.165zm6.996-4.05v3.982h-.922v-1.633h-1.809v1.633h-.922v-3.982h.922v1.57h1.809v-1.57h.922z"/>
            <path   d="M40.148 29.838v.74h-3.083v-3.982h3.009v.74h-2.093v.865h1.849v.717h-1.849v.922h2.167zm5.409-3.242v3.982H44.8l-1.985-2.418v2.418h-.91v-3.982h.762l1.98 2.418v-2.418h.91zm4.657 1.928h.842v1.616c-.216.163-.467.288-.751.375s-.571.131-.859.131c-.413 0-.785-.087-1.115-.262a2.01 2.01 0 0 1-.779-.734c-.186-.315-.279-.669-.279-1.064s.093-.747.279-1.058c.19-.315.451-.559.785-.734a2.355 2.355 0 0 1 1.126-.267c.349 0 .666.059.95.176s.523.288.717.512l-.592.546a1.367 1.367 0 0 0-1.03-.449c-.254 0-.48.053-.677.159s-.351.256-.461.449c-.11.193-.165.415-.165.666 0 .247.055.466.165.66s.262.345.455.455c.197.106.421.159.671.159.266 0 .504-.057.717-.171v-1.166zm2.722-1.928h.922v3.231h1.997v.751h-2.918v-3.982zm4.458 0h.922v3.982h-.922v-3.982zm4.199 4.05c-.315 0-.62-.042-.916-.125a2.163 2.163 0 0 1-.705-.336l.313-.694c.171.125.374.226.609.302s.47.114.705.114c.262 0 .455-.038.58-.114.125-.08.188-.184.188-.313a.284.284 0 0 0-.114-.233.79.79 0 0 0-.284-.154 5.125 5.125 0 0 0-.467-.125c-.303-.072-.552-.144-.745-.216s-.36-.188-.501-.347c-.137-.159-.205-.372-.205-.637 0-.231.063-.44.188-.626.125-.19.313-.339.563-.449.254-.11.563-.165.927-.165.254 0 .503.03.745.091s.455.148.637.262l-.284.7a2.218 2.218 0 0 0-1.104-.313c-.258 0-.449.042-.575.125-.121.083-.182.193-.182.33s.07.239.211.307c.144.064.362.129.654.193.303.072.552.144.745.216s.358.186.495.341c.14.156.211.366.211.631 0 .228-.064.436-.193.626-.125.186-.315.334-.569.444s-.563.165-.927.165zm6.995-4.05v3.982h-.922v-1.633h-1.809v1.633h-.922v-3.982h.922v1.57h1.809v-1.57h.922zM74.263 14.949v2.829H63.872V4.836h10.15v2.829h-6.527v2.182h5.75v2.736h-5.75v2.367h6.767zM89.348 4.836v12.942h-3.014l-5.713-6.896v6.896h-3.587V4.836h3.014l5.713 6.896V4.836h3.587z"/>
            <path fill="#ff6b09" style="fill:var(--color2, #ff6b09)" d="M58.695 11.062c-.189-.423-.45-.84-.831-1.322-.962-1.209-1.255-3.905-1.258-3.931a.326.326 0 0 0-.225-.275.33.33 0 0 0-.345.094c-1.147 1.283-.665 3.265-.404 4.057.072.217.15.472.205.731.424 2.091-.394 3.038-.587 3.229-.186.052-.313.026-.43-.1-.404-.443-.538-1.894-.349-3.785a3.89 3.89 0 0 0-.026-1.054c-.399-2.324-1.86-3.815-2.233-4.338C51.189 2.855 51.084.337 51.081.315a.324.324 0 0 0-.508-.255c-1.708 1.16-1.561 3.956-1.323 5.518.055.362.163.731.349 1.196.662 1.665-.13 3.814-.137 3.834s-.013.036-.016.055c-.101.53-.271.847-.46.847a.205.205 0 0 1-.062-.01c-.231-.049-.352-.294-.355-.507-.013-2.757-2.78-3.685-2.809-3.695a.323.323 0 0 0-.345.097.32.32 0 0 0-.046.356c.033.068.137.365.065 1.416a12.072 12.072 0 0 1-.512 2.773 13.547 13.547 0 0 0-.548 4.276c.506 5.505 8.423 6.469 13.122 3.368a4.742 4.742 0 0 0 1.245-1.154c1.734-2.392.714-5.64-.046-7.366zm-12.043 5.259a.322.322 0 0 1-.306.339h-.02a.325.325 0 0 1-.326-.304c-.029-.472-.023-.966.013-1.503a.326.326 0 0 1 .652.045c-.036.511-.042.976-.013 1.422zm.16-2.864a.323.323 0 0 1-.323.284c-.013 0-.026 0-.042-.003a.327.327 0 0 1-.284-.359l.156-1.248a.328.328 0 0 1 .365-.281.326.326 0 0 1 .284.362l-.156 1.245zM56.49 4.422a.322.322 0 0 1-.272-.368c.02-.131.138-.804.458-1.142.123-.13.329-.137.461-.015s.138.327.015.457c-.135.143-.25.553-.289.798a.326.326 0 0 1-.372.27zM44.608 6.032c-.062-.24-.217-.637-.366-.766-.135-.118-.149-.322-.03-.456s.324-.148.46-.03c.351.305.535.963.568 1.092a.322.322 0 0 1-.235.393.327.327 0 0 1-.397-.232z"/>
        </symbol>
        <symbol id="icon-mob-menu" viewBox="0 0 53 32">
            <path stroke-linecap="round" stroke-width="4.571" d="M2.286 2.286h48M2.286 16h48M2.286 29.714h48"/>
        </symbol>
        <symbol id="icon-desk-tab-logo" viewBox="0 0 91 32">
            <path  d="M13.608 4.836v12.942H9.947v-5.047H4.955v5.047H1.294V4.836h3.661v4.863h4.992V4.836h3.661zm13.398 7.95c0 .025-.018.314-.055.869h-7.285c.148.518.431.918.851 1.202.431.271.968.407 1.609.407.481 0 .894-.068 1.239-.203a3.63 3.63 0 0 0 1.072-.666l1.849 1.923c-.974 1.085-2.397 1.627-4.271 1.627-1.171 0-2.2-.222-3.088-.666s-1.578-1.06-2.071-1.849c-.481-.789-.721-1.683-.721-2.681 0-.986.234-1.867.703-2.644.481-.789 1.14-1.405 1.978-1.849s1.781-.666 2.829-.666c.998 0 1.904.21 2.718.629a4.58 4.58 0 0 1 1.923 1.793c.481.777.721 1.701.721 2.773zm-5.343-2.7c-.542 0-.998.154-1.368.462-.357.308-.586.727-.684 1.257h4.105c-.099-.53-.333-.949-.703-1.257-.357-.308-.807-.462-1.35-.462zm7.702-6.027h3.513v13.719h-3.513V4.059zm6.536 0h3.513v13.719h-3.513V4.059z"/>
            <path fill="#ff6b09" style="fill:var(--color2, #ff6b09)" d="M5.547 26.596v3.982h-.922v-1.633H2.816v1.633h-.922v-3.982h.922v1.57h1.809v-1.57h.922zm5.049 3.242v.74H7.513v-3.982h3.009v.74H8.428v.865h1.849v.717H8.428v.922h2.167zm1.758-3.242h.922v3.231h1.997v.751h-2.918v-3.982zm4.457 0h.922v3.231h1.997v.751h-2.918v-3.982zm4.457 0h.922v3.982h-.922v-3.982zm4.199 4.05c-.315 0-.62-.042-.916-.125a2.163 2.163 0 0 1-.705-.336l.313-.694c.171.125.374.226.609.302s.47.114.705.114c.262 0 .455-.038.58-.114.125-.08.188-.184.188-.313a.284.284 0 0 0-.114-.233.79.79 0 0 0-.284-.154 5.18 5.18 0 0 0-.466-.125c-.303-.072-.552-.144-.745-.216s-.36-.188-.501-.347c-.137-.159-.205-.372-.205-.637 0-.231.063-.44.188-.626.125-.19.313-.339.563-.449.254-.11.563-.165.927-.165.254 0 .502.03.745.091s.455.148.637.262l-.284.7a2.218 2.218 0 0 0-1.104-.313c-.258 0-.449.042-.575.125-.121.083-.182.193-.182.33s.07.239.21.307c.144.064.362.129.654.193.303.072.552.144.745.216s.358.186.495.341c.14.156.21.366.21.631 0 .228-.064.436-.193.626-.125.186-.315.334-.569.444s-.563.165-.927.165zm6.996-4.05v3.982h-.922v-1.633h-1.809v1.633h-.922v-3.982h.922v1.57h1.809v-1.57h.922z"/>
            <path  d="M40.148 29.838v.74h-3.083v-3.982h3.009v.74h-2.093v.865h1.849v.717h-1.849v.922h2.167zm5.409-3.242v3.982H44.8l-1.985-2.418v2.418h-.91v-3.982h.762l1.98 2.418v-2.418h.91zm4.657 1.928h.842v1.616c-.216.163-.467.288-.751.375s-.571.131-.859.131c-.413 0-.785-.087-1.115-.262a2.01 2.01 0 0 1-.779-.734c-.186-.315-.279-.669-.279-1.064s.093-.747.279-1.058c.19-.315.451-.559.785-.734a2.355 2.355 0 0 1 1.126-.267c.349 0 .666.059.95.176s.523.288.717.512l-.592.546a1.367 1.367 0 0 0-1.03-.449c-.254 0-.48.053-.677.159s-.351.256-.461.449c-.11.193-.165.415-.165.666 0 .247.055.466.165.66s.262.345.455.455c.197.106.421.159.671.159.266 0 .504-.057.717-.171v-1.166zm2.722-1.928h.922v3.231h1.997v.751h-2.918v-3.982zm4.458 0h.922v3.982h-.922v-3.982zm4.199 4.05c-.315 0-.62-.042-.916-.125a2.163 2.163 0 0 1-.705-.336l.313-.694c.171.125.374.226.609.302s.47.114.705.114c.262 0 .455-.038.58-.114.125-.08.188-.184.188-.313a.284.284 0 0 0-.114-.233.79.79 0 0 0-.284-.154 5.125 5.125 0 0 0-.467-.125c-.303-.072-.552-.144-.745-.216s-.36-.188-.501-.347c-.137-.159-.205-.372-.205-.637 0-.231.063-.44.188-.626.125-.19.313-.339.563-.449.254-.11.563-.165.927-.165.254 0 .503.03.745.091s.455.148.637.262l-.284.7a2.218 2.218 0 0 0-1.104-.313c-.258 0-.449.042-.575.125-.121.083-.182.193-.182.33s.07.239.211.307c.144.064.362.129.654.193.303.072.552.144.745.216s.358.186.495.341c.14.156.211.366.211.631 0 .228-.064.436-.193.626-.125.186-.315.334-.569.444s-.563.165-.927.165zm6.995-4.05v3.982h-.922v-1.633h-1.809v1.633h-.922v-3.982h.922v1.57h1.809v-1.57h.922zM74.263 14.949v2.829H63.872V4.836h10.15v2.829h-6.527v2.182h5.75v2.736h-5.75v2.367h6.767zM89.348 4.836v12.942h-3.014l-5.713-6.896v6.896h-3.587V4.836h3.014l5.713 6.896V4.836h3.587z"/>
            <path fill="#ff6b09" style="fill:var(--color2, #ff6b09)" d="M58.695 11.062c-.189-.423-.45-.84-.831-1.322-.962-1.209-1.255-3.905-1.258-3.931a.326.326 0 0 0-.225-.275.33.33 0 0 0-.345.094c-1.147 1.283-.665 3.265-.404 4.057.072.217.15.472.205.731.424 2.091-.394 3.038-.587 3.229-.186.052-.313.026-.43-.1-.404-.443-.538-1.894-.349-3.785a3.89 3.89 0 0 0-.026-1.054c-.399-2.324-1.86-3.815-2.233-4.338C51.189 2.855 51.084.337 51.081.315a.324.324 0 0 0-.508-.255c-1.708 1.16-1.561 3.956-1.323 5.518.055.362.163.731.349 1.196.662 1.665-.13 3.814-.137 3.834s-.013.036-.016.055c-.101.53-.271.847-.46.847a.205.205 0 0 1-.062-.01c-.231-.049-.352-.294-.355-.507-.013-2.757-2.78-3.685-2.809-3.695a.323.323 0 0 0-.345.097.32.32 0 0 0-.046.356c.033.068.137.365.065 1.416a12.072 12.072 0 0 1-.512 2.773 13.547 13.547 0 0 0-.548 4.276c.506 5.505 8.423 6.469 13.122 3.368a4.742 4.742 0 0 0 1.245-1.154c1.734-2.392.714-5.64-.046-7.366zm-12.043 5.259a.322.322 0 0 1-.306.339h-.02a.325.325 0 0 1-.326-.304c-.029-.472-.023-.966.013-1.503a.326.326 0 0 1 .652.045c-.036.511-.042.976-.013 1.422zm.16-2.864a.323.323 0 0 1-.323.284c-.013 0-.026 0-.042-.003a.327.327 0 0 1-.284-.359l.156-1.248a.328.328 0 0 1 .365-.281.326.326 0 0 1 .284.362l-.156 1.245zM56.49 4.422a.322.322 0 0 1-.272-.368c.02-.131.138-.804.458-1.142.123-.13.329-.137.461-.015s.138.327.015.457c-.135.143-.25.553-.289.798a.326.326 0 0 1-.372.27zM44.608 6.032c-.062-.24-.217-.637-.366-.766-.135-.118-.149-.322-.03-.456s.324-.148.46-.03c.351.305.535.963.568 1.092a.322.322 0 0 1-.235.393.327.327 0 0 1-.397-.232z"/>
        </symbol>
        <symbol id="icon-study-program" viewBox="0 0 32 32">
            <path  d="m29.071 6.087-.001-.002a.242.242 0 0 0-.053-.079l-4.231-4.188a.193.193 0 0 0-.036-.028l-.008-.005a.324.324 0 0 0-.032-.017l-.009-.004a.26.26 0 0 0-.087-.018H5.97a.249.249 0 0 0-.25.248V27.54a.28.28 0 0 0 .005.049l.006.02.008.026c.003.008.008.015.012.022l.011.02c.009.012.018.024.029.035l.002.003 1.906 1.886a.252.252 0 0 0 .354 0l1.729-1.711 1.729 1.711a.249.249 0 0 0 .354 0l1.729-1.711 1.729 1.711a.252.252 0 0 0 .354 0l1.729-1.711 1.729 1.711a.25.25 0 0 0 .353 0l1.73-1.711 1.729 1.711a.249.249 0 0 0 .354 0l1.729-1.711 1.73 1.711a.25.25 0 0 0 .353 0l1.906-1.886.01-.012c.007-.008.015-.016.021-.025s.01-.018.014-.026l.008-.016c.005-.011.008-.023.011-.034l.004-.012a.284.284 0 0 0 .005-.051V6.183a.26.26 0 0 0-.02-.095zm-4.212-3.496 3.377 3.343h-3.377V2.591zm3.731 24.845-1.655 1.639-1.73-1.711a.252.252 0 0 0-.353 0l-1.729 1.711-1.729-1.711a.254.254 0 0 0-.354 0l-1.73 1.711-1.728-1.71v-.001a.252.252 0 0 0-.354 0L15.5 29.075l-1.729-1.711a.254.254 0 0 0-.354 0l-1.729 1.711-1.729-1.711a.254.254 0 0 0-.354 0l-1.729 1.711-1.655-1.639V2.24h18.138v3.941c0 .137.112.248.25.248h3.98v21.007z"/>
            <path  d="M8.085 4.583h8.19c.138 0 .25-.111.25-.248s-.112-.248-.25-.248h-8.19c-.138 0-.25.111-.25.248s.112.248.25.248zM8.085 6.114h13.134c.138 0 .25-.111.25-.248s-.112-.248-.25-.248H8.085c-.138 0-.25.111-.25.248s.112.248.25.248zM7.835 7.488v8.017c0 .137.112.248.25.248h18.639c.138 0 .25-.111.25-.248V7.488a.249.249 0 0 0-.25-.248H8.085a.249.249 0 0 0-.25.248zm5.528.248h13.111v2.131H13.363V7.736zm0 2.626h13.111v2.13H13.363v-2.13zm0 2.625h13.111v2.271H13.363v-2.271zM8.336 7.736h4.527v2.131H8.336V7.736zm0 2.626h4.527v2.13H8.336v-2.13zm0 2.625h4.527v2.271H8.336v-2.271zM26.725 16.867H8.086a.249.249 0 0 0-.25.248v8.017c0 .137.112.247.25.247s.25-.111.25-.247v-2.518h4.527v2.518c0 .137.112.247.25.247s.25-.111.25-.247v-2.518h13.111v2.518c0 .137.112.247.25.247s.25-.111.25-.247v-8.017a.248.248 0 0 0-.249-.248zm-13.862 5.251H8.336v-2.13h4.527v2.13zm0-2.625H8.336v-2.13h4.527v2.13zm13.611 2.625H13.363v-2.13h13.111v2.13zm0-2.625H13.363v-2.13h13.111v2.13zM4.535 1.745a.249.249 0 0 0-.25.248v25.546c0 .136.112.247.25.247s.25-.111.25-.247V1.993a.249.249 0 0 0-.25-.248zM3.159 1.745a.249.249 0 0 0-.25.248v25.546c0 .136.112.247.25.247s.25-.111.25-.247V1.993a.249.249 0 0 0-.25-.248z"/>
        </symbol>
        <symbol id="icon-mobile-learning" viewBox="0 0 32 32">
            <path  d="M28.09 2.327H14.666c-.874 0-1.585.707-1.585 1.576v5.526l-9.973 4.162a.323.323 0 0 0-.041.575l1.272.757v8.066a1.46 1.46 0 0 0-1.138 1.419v.778c0 .178.145.323.325.323h2.277a.325.325 0 0 0 .325-.323v-.778c0-.692-.488-1.27-1.139-1.418v-7.681l1.006.599c-.031.231-.004-.402-.014 3.755 0 1.367 3.52 2.099 7.102 2.141v6.295c0 .325.1.628.271.879.285.419.767.695 1.313.695h13.424a1.58 1.58 0 0 0 1.583-1.574c0 .043-.002-1.333 0-24.195a1.59 1.59 0 0 0-1.582-1.576zM5.478 24.408v.455H3.85v-.455a.813.813 0 0 1 1.628 0zm22.612 4.617H14.666a.937.937 0 0 1-.775-.408.918.918 0 0 1-.16-.519v-2.182h15.29v2.183a.937.937 0 0 1-.931.926zm.931-3.755H13.73v-3.464c1.749-.02 7.106-.403 7.106-2.143-.002-2.612.005-3.671-.008-3.76l2.916-1.737a.323.323 0 0 0-.041-.575L13.73 9.429V6.732h15.291v18.539zm-15.615-7.751c-1.801 0-5.27.231-6.777 1.21.01-2.993-.104-2.798.266-3.052.936-.685 3.613-1.164 6.511-1.164 1.264 0 6.781.345 6.781 1.507v2.709c-1.521-.988-4.972-1.21-6.781-1.21zm.325-13.616c0-.512.419-.929.934-.929h13.424c.515 0 .932.422.932.928v2.182h-15.29V3.902zm-.325 6.091 9.455 3.946-2.343 1.394c-1.246-1.228-5.366-1.466-7.112-1.466-1.749 0-5.869.239-7.112 1.467l-2.343-1.394 9.455-3.946zm-6.777 9.67c0-.523 2.328-1.498 6.777-1.498 4.452 0 6.781.976 6.781 1.498s-2.329 1.499-6.781 1.499c-4.449 0-6.777-.976-6.777-1.499z"/>
            <path  d="M21.377 26.403c-.592 0-1.074.479-1.074 1.068s.482 1.069 1.074 1.069c.592 0 1.074-.479 1.074-1.069s-.482-1.068-1.074-1.068zm0 1.491c-.234 0-.425-.19-.425-.423s.191-.422.425-.422c.234 0 .425.189.425.422s-.191.423-.425.423zM22.616 4.207h-2.478v.646h2.478v-.646z"/>
        </symbol>
        <symbol id="icon-open-book" viewBox="0 0 32 32">
            <path  d="M14.717 9.194H6.274v.636h8.443v-.636zM14.717 11.566H7.538v.636h7.179v-.636zM14.717 13.939H6.274v.636h8.443v-.636zM14.717 16.311H7.538v.636h7.179v-.636zM14.717 18.683H6.274v.636h8.443v-.636zM14.717 21.055H7.538v.636h7.179v-.636zM26.308 9.194h-8.443v.636h8.443v-.636zM25.043 11.566h-7.179v.636h7.179v-.636zM26.308 13.939h-8.443v.636h8.443v-.636zM25.043 16.311h-7.179v.636h7.179v-.636zM26.308 18.683h-8.443v.636h8.443v-.636zM25.043 21.055h-7.179v.636h7.179v-.636z"/>
            <path  d="M29.357 8.47h-1.159V6.718a.317.317 0 0 0-.316-.318h-9.449c-.922 0-1.721.502-2.141 1.253A2.442 2.442 0 0 0 14.151 6.4H4.702a.317.317 0 0 0-.316.318V8.47H3.227a.317.317 0 0 0-.316.318v17.076c0 .176.142.318.316.318h26.131a.317.317 0 0 0 .316-.318V8.788a.317.317 0 0 0-.316-.318zM18.432 7.036h9.133v17.038h-9.808a1.86 1.86 0 0 0-1.151.424V8.869a1.82 1.82 0 0 1 1.825-1.832zm-13.416 0h9.133c.988 0 1.788.774 1.821 1.762 0 .014.002.057.004.07v15.628a1.844 1.844 0 0 0-1.147-.423H5.015V7.035zm-1.475 2.07h.843v15.286c0 .176.142.318.316.318h10.128c.482 0 .948.318 1.097.835H3.541V9.106zm25.5 16.44H16.658c.15-.52.611-.835 1.101-.835h10.124a.317.317 0 0 0 .316-.318V9.107h.843v16.439z"/>
        </symbol>
        <symbol id="icon-union" viewBox="0 0 32 32">
            <path  d="M4.055 13.287v2.471c0 .133.06.258.164.34a9.574 9.574 0 0 0 5.924 2.061 9.66 9.66 0 0 0 1.912-.195c1.338.596 2.763.901 4.237.901 1.479 0 2.904-.305 4.237-.901 2.678.545 5.532-.04 7.835-1.866a.433.433 0 0 0 .164-.34v-2.471a1.05 1.05 0 0 0-.498-.896l-3.351-1.899c.733-.937 1.279-2.271 1.374-3.415.278-1.969-1.315-4.055-3.609-4.055-.965 0-1.881.4-2.554 1.071-.023.023-.05.043-.072.067-.021.022-.038.047-.058.07l-.038.046c-.656-1.204-1.916-1.948-3.4-1.948-.144 0-.286.01-.426.024-.009-.001-.016-.005-.024-.005-.08 0-.248.021-.339.047-.013.004-.023.013-.036.018a3.884 3.884 0 0 0-2.611 1.882 3.608 3.608 0 0 0-2.754-1.272c-3.386 0-4.888 4.025-2.216 7.489l-3.382 1.891c-.3.191-.479.522-.479.885zm16.465 3.726c-.073.036-.145.074-.218.107l-.002.001a9.48 9.48 0 0 1-4.009.878 9.534 9.534 0 0 1-5.783-1.944V13.55c0-.085.041-.161.089-.193l3.935-2.203c.49.419 1.115.726 1.763.726.624 0 1.299-.312 1.778-.736l3.888 2.199a.242.242 0 0 1 .113.207v2.504a9.512 9.512 0 0 1-1.554.958zm7.068-3.88c.051.032.08.088.08.154v2.258a8.613 8.613 0 0 1-5.837 1.728c.32-.201.668-.451.938-.663a.432.432 0 0 0 .164-.341v-2.718c0-.38-.189-.729-.529-.948l-2.065-1.169.502-.28c.609.5 1.132.649 1.602.649.574 0 1.178-.284 1.627-.662l3.518 1.993zm-5.144-9.245a2.79 2.79 0 0 1 2.618 1.87 3.195 3.195 0 0 1-1.938-.997.43.43 0 0 0-.683.073 3.193 3.193 0 0 1-2.207 1.536v-.003a4.378 4.378 0 0 0-.028-.57l-.006-.058a5.099 5.099 0 0 0-.105-.531c.488-.787 1.394-1.32 2.351-1.32zm-2.305 3.365a4.017 4.017 0 0 0 2.742-1.538 4.043 4.043 0 0 0 2.341.922c-.006 1.564-1.275 4.3-2.778 4.3-1.159 0-2.148-1.669-2.517-2.826.094-.298.162-.584.213-.858zm.087 3.254-.768.428-.775-.439c.287-.361.551-.779.777-1.233.217.459.477.882.766 1.244zm-1.158-2.538c-.414 1.245-1.477 3.046-2.772 3.046-1.51 0-2.795-2.5-3.04-4.098.065-.016 2.105.11 3.509-1.746.712.6 1.674.998 2.609 1.037.011.564-.125 1.227-.305 1.761zm-2.747-4.776c2.408 0 2.867 2.088 2.905 2.131a3.569 3.569 0 0 1-2.221-1.113.427.427 0 0 0-.683.075 3.534 3.534 0 0 1-3.103 1.764c.118-1.59 1.383-2.857 3.102-2.857zm-3.196 6.062c.223.449.488.878.791 1.255l-.759.425-.786-.445a6.77 6.77 0 0 0 .753-1.235zm-2.994-5.367c.974 0 1.867.498 2.365 1.321-.025.087-.092.435-.101.478a3.179 3.179 0 0 1-1.578-.927.427.427 0 0 0-.683.076A3.212 3.212 0 0 1 7.381 6.42c.137-1.42 1.315-2.531 2.75-2.531zM7.419 7.282a4.068 4.068 0 0 0 3.156-1.567c.516.428 1.129.71 1.781.839.025.502.155 1.111.303 1.561-.237.733-.692 1.606-1.257 2.187l-.012.009c-.353.375-.856.627-1.251.627-1.381 0-2.461-2.189-2.721-3.655zm-2.505 6.005c0-.066.029-.121.058-.141l3.566-1.993c.214.179.263.2.306.232.42.281.804.421 1.329.421.559 0 1.068-.239 1.516-.606.025-.02.052-.039.076-.059l.509.288-2.12 1.188a1.11 1.11 0 0 0-.506.935v2.718c0 .133.06.258.164.34.274.217.63.47.938.664a8.645 8.645 0 0 1-5.838-1.728v-2.258z"/>
            <path  d="M29.412 20.463a1.775 1.775 0 0 0-1.739-.096l-5.302 2.58a1.834 1.834 0 0 0-1.825-1.808l-3.04.001c-1.499-1.313-3.415-2.116-5.157-2.159a212.69 212.69 0 0 0-3.979-.056v-.874H2.329v10.051H8.37v-1.204c1.657.957 6.012 3.356 8.079 3.356.047 0 .093-.001.137-.004 3.635-.205 12.209-6.282 12.775-6.686a1.817 1.817 0 0 0 .053-3.102zM7.509 27.237H3.187v-8.32h4.322v8.32zm21.407-4.414a.303.303 0 0 0-.038.024c-.089.063-8.908 6.346-12.342 6.54a1.764 1.764 0 0 1-.105.003c-1.813 0-6.233-2.402-8.064-3.492v-6.106c.716.003 2.25.015 3.959.056 1.591.038 3.358.804 4.727 2.047l.123.112 3.368-.001c.535 0 .97.438.97.976s-.435.977-.969.977h-6.188v.866h6.188c.593 0 1.116-.29 1.45-.733l6.051-2.944c.297-.146.628-.127.909.05s.44.469.44.801a.95.95 0 0 1-.479.825zM16.721 12.938h-.859v.803h.859v-.803zM16.721 14.539h-.859v.803h.859v-.803zM16.721 16.139h-.859v.802h.859v-.802z"/>
        </symbol>
        <symbol id="icon-female-student" viewBox="0 0 32 32">
            <path  d="M4.124 29.091h23.775c.118-2.634-.076-7.005-1.743-9.085l-.06-.075-3.643-1.777c.079-.259.118-.497.134-.671a1.204 1.204 0 0 0-.089-.585c-.601-1.397-1.873-2.132-2.572-2.446.213-.417.351-.865.417-1.323.396-.108.714-.413.819-.82l.425-1.678a1.109 1.109 0 0 0-.395-1.152c1.199-2.646-.809-5.14-.918-5.272-2.175-2.284-4.921-1.857-5.067-1.832-3.964.807-5.494 3.758-4.63 7.221a1.112 1.112 0 0 0-.268 1.035l.427 1.68c.104.404.42.708.813.817a4.267 4.267 0 0 0 1.023 2.207v1.331c-5.689 2.831-2.084 1.025-6.643 3.266-.009.042-2.139 2.241-1.823 8.761l.019.398zm22.949-.836H23.16v-1.597l2.588-5.756c1.297 2.091 1.345 6.083 1.325 7.353zm-5.34-10.843c-.151 1.685-1.102 1.176-1.689 2.474-.462-.493-.601-1.085-.477-1.719.224-1.163-.506-1.508-.326-2.73l.027-.028v-.004c.016-.017.16-.184.201-.236 1.548.656 2.293 1.875 2.263 2.243zm-8.305-1.325a4.5 4.5 0 0 0 2.519.771c.879 0 1.713-.248 2.429-.706.099.961.486 1.153.349 1.86-.026.131-.04.261-.048.388l-2.665 2.918-3.406-3.731.822-.417v-1.082zm-1.072-3.571V8.055c.415-.745.98-1.286 1.683-1.61 1.882 1.035 4.048 2.579 5.501 4.132-.001 1.979.006 1.984-.008 2.147l-.001.01c-.113 1.797-1.634 3.286-3.584 3.286-1.896 0-3.47-1.446-3.584-3.304a2.237 2.237 0 0 1-.007-.201zm-.53 5.473 4.186 4.585 2.81-3.078c.064.18.154.349.257.513l-3.068 3.728-4.575-5.559.389-.189zm8.571-6.146v-1.292l.32-.356c.018.654.09-.118-.32 1.648zm-5.032-8.646c.17.01 2.454-.338 4.26 1.556.071.087 1.541 1.926.95 3.939-.202-.896-.554-2.043-1.111-2.591l-.609.589c.55.541.911 2.188 1.048 3.042-2.521-2.563-5.774-4.186-5.818-4.213-.163.099-1.539.353-2.539 2.24l-.048.09v1.386l-.126.001c-.635-2.979.581-5.346 3.992-6.04zm-4.082 6.9.216.851v.895l-.36-1.414c-.053-.211.108-.291.143-.333zm-.63 8.464 5.359 6.512 3.626-4.406c.394.343.584.392 1.42.809l-.282-.93c-.072-.236.212-.615.383-.789.382-.201.7-.488.939-.843l2.958 1.443-2.753 6.123v1.772H9.72V26.48l-2.754-6.123 3.687-1.798zm-4.378 2.342 2.588 5.755v1.597H4.95c-.02-1.27.029-5.26 1.325-7.351z"/>
        </symbol>
        <symbol id="icon-audio-book" viewBox="0 0 32 32">
            <path  d="M3.018 26.77h9.923a3.029 3.029 0 0 0 2.743 1.74h.627c1.189 0 2.24-.682 2.743-1.74h9.928c1.023 0 1.855-.843 1.855-1.879V6.881c0-1.036-.832-1.879-1.855-1.879H27.98v-.839c0-.691-.555-1.253-1.236-1.253H5.25c-.682 0-1.236.562-1.236 1.253v.839h-.995c-1.023 0-1.855.843-1.855 1.879v18.01c0 1.036.832 1.879 1.855 1.879zm23.725-3.865H16.618V8.348c2.34.31 4.155 2.339 4.155 4.794v.565l-.147-.033c-.159-.035-.327-.006-.465.084s-.236.231-.271.393l-.984 4.538a.626.626 0 0 0 .471.745l2.127.475a1.582 1.582 0 0 0 1.881-1.226l.569-2.624a1.606 1.606 0 0 0-1.204-1.911l-.74-.165v-.841c0-3.147-2.367-5.744-5.391-6.06v-2.92h10.126l-.001 18.743zm-5.779-7.873 1.518.339c.19.043.305.226.264.418l-.569 2.624a.366.366 0 0 1-.412.272l-1.52-.34.719-3.313zM5.25 4.162h10.132v2.919c-3.027.313-5.397 2.912-5.397 6.061v.841l-.741.166a1.574 1.574 0 0 0-.992.702c-.228.361-.302.79-.211 1.207l.568 2.621a1.593 1.593 0 0 0 1.549 1.266c.112 0 .223-.012.337-.037l2.118-.474a.626.626 0 0 0 .47-.745l-.984-4.538a.618.618 0 0 0-.737-.477l-.141.032v-.564c0-2.457 1.817-4.487 4.161-4.795v14.558H5.25V4.162zm5.775 10.871.72 3.313-1.512.338a.35.35 0 0 1-.415-.27l-.569-2.627a.35.35 0 0 1 .262-.416l1.515-.339zM2.4 6.881c0-.345.277-.626.618-.626h.995v16.65c0 .691.555 1.253 1.236 1.253h21.494c.682 0 1.236-.562 1.236-1.253V6.255h1.002c.341 0 .618.281.618.626v18.01a.623.623 0 0 1-.618.626H18.632a.62.62 0 0 0-.591.443 1.805 1.805 0 0 1-1.732 1.297h-.627a1.81 1.81 0 0 1-1.734-1.304.62.62 0 0 0-.589-.435H3.017a.623.623 0 0 1-.618-.626V6.882z"/>
        </symbol>
        <symbol id="icon-mob-tab-ellipse" viewBox="0 0 32 32">
            <path fill="#ff6b09" style="fill:var(--color2, #ff6b09)" d="M16 32C7.163 32 0 24.837 0 16S7.163 0 16 0s16 7.163 16 16-7.163 16-16 16z"/>
        </symbol>
        <symbol id="icon-desk-ellipse" viewBox="0 0 34 32">
            <path fill="#ff6b09" style="fill:var(--color2, #ff6b09)" d="M32.286 16c0 8.837-7.227 16-16.143 16S0 24.837 0 16 7.227 0 16.143 0s16.143 7.163 16.143 16z"/>
        </symbol>
        <symbol id="icon-desk-campfire-big" viewBox="0 0 28 32">
            <path d="M28.799 21.831c-.373-.836-.887-1.659-1.639-2.609-1.896-2.386-2.474-7.706-2.481-7.757a.642.642 0 0 0-.443-.542.65.65 0 0 0-.681.185c-2.262 2.533-1.311 6.443-.797 8.006.141.427.296.931.405 1.442.835 4.127-.778 5.996-1.157 6.373-.366.102-.617.051-.848-.198-.797-.874-1.06-3.738-.688-7.47a7.66 7.66 0 0 0-.051-2.08c-.786-4.587-3.668-7.529-4.402-8.561-2.018-2.985-2.224-7.955-2.23-7.999a.641.641 0 0 0-1.002-.504c-3.368 2.29-3.078 7.808-2.609 10.889.109.714.321 1.442.688 2.36 1.305 3.285-.257 7.527-.27 7.566s-.026.07-.032.108c-.199 1.046-.533 1.671-.906 1.671a.428.428 0 0 1-.122-.019c-.456-.096-.694-.581-.7-1.002-.026-5.441-5.482-7.272-5.54-7.291a.64.64 0 0 0-.681.191.627.627 0 0 0-.09.702c.064.134.27.721.129 2.794a23.848 23.848 0 0 1-1.009 5.473C.345 27.795.55 31.807.563 31.998c.998 10.864 16.609 12.768 25.873 6.647 1.015-.67 1.844-1.435 2.455-2.277 3.419-4.721 1.407-11.131-.09-14.538zM5.053 32.21a.637.637 0 0 1-.604.67H4.41a.64.64 0 0 1-.643-.6 22.933 22.933 0 0 1 .026-2.966.645.645 0 0 1 1.286.09 20.55 20.55 0 0 0-.026 2.807zm.315-5.652a.638.638 0 0 1-.636.561c-.026 0-.051 0-.084-.006a.643.643 0 0 1-.559-.708l.308-2.462a.65.65 0 0 1 .72-.555.64.64 0 0 1 .559.714l-.308 2.456zM24.451 8.727A.638.638 0 0 1 23.914 8c.04-.259.272-1.586.902-2.253a.645.645 0 0 1 .908-.029.635.635 0 0 1 .029.902c-.267.283-.494 1.091-.57 1.575a.643.643 0 0 1-.733.533zM1.023 11.905C.9 11.431.594 10.648.301 10.393c-.267-.232-.294-.635-.06-.9s.639-.292.907-.059c.693.603 1.054 1.901 1.12 2.154a.638.638 0 0 1-.462.776.644.644 0 0 1-.783-.459z"/>
        </symbol>
        <symbol id="icon-desk-tab-mob-arrow-left" viewBox="0 0 54 32">
            <path fill="#ff6b09" style="fill:var(--color2, #ff6b09)" d="M52 14a2 2 0 1 1 0 4v-4zM.586 17.414a2 2 0 0 1 0-2.828L13.314 1.858a2 2 0 1 1 2.828 2.828L4.828 16l11.314 11.314a2 2 0 1 1-2.828 2.828L.586 17.414zM52 18H2v-4h50v4z"/>
        </symbol>
        <symbol id="icon-desk-tab-mob-arrow-right" viewBox="0 0 54 32">
            <path fill="#ff6b09" style="fill:var(--color2, #ff6b09)" d="M2 14a2 2 0 1 0 0 4v-4zm51.414 3.414a2 2 0 0 0 0-2.828L40.686 1.858a2 2 0 1 0-2.828 2.828L49.172 16 37.858 27.314a2 2 0 1 0 2.828 2.828l12.728-12.728zM2 18h50v-4H2v4z"/>
        </symbol>
        <symbol id="icon-desk-tab-mob-facebook" viewBox="0 0 31 32">
            <path fill="#436eab" style="fill:var(--color4, #436eab)" d="M26.318 2.314H4.767c-.779 0-1.527.307-2.078.853s-.861 1.287-.861 2.06V26.59c0 .773.31 1.514.861 2.06s1.299.853 2.078.853h8.403v-9.244H9.313v-4.351h3.857v-3.316c0-3.772 2.265-5.856 5.735-5.856 1.662 0 3.399.294 3.399.294v3.702H20.39c-1.886 0-2.475 1.16-2.475 2.351v2.825h4.211l-.673 4.351h-3.538v9.244h8.403c.779 0 1.527-.307 2.078-.853s.861-1.287.861-2.06V5.227c0-.773-.31-1.514-.861-2.06s-1.299-.853-2.078-.853z"/>
        </symbol>
    </defs>
</svg>